<?xml version="1.0" encoding="UTF-8"?>
<svg width="442.53" height="249.85" version="1.1" viewBox="0 0 885.06 499.7" xmlns="http://www.w3.org/2000/svg" xmlns:xlink="http://www.w3.org/1999/xlink">
<defs>
<style>.cls-1{fill:#070308;}.cls-2{fill:#211915;}</style>
<clipPath id="a">
<rect x="-51.784" y="657.93" width="885.06" height="621.93" fill="#fff"/>
</clipPath>
</defs>
<rect transform="translate(51.784 -657.93)" x="-51.784" y="581.6" width="891.28" height="576.03" clip-path="url(#a)" fill="#303030"/>
<path d="m-11.86 490.58h919.35c1.2997 1.1393 0-356.97 0-356.97l-17.678 1.5906-187.3-11.592-300.88-1.5134-413.5-0.3799z" fill="#404040" fill-rule="evenodd" stop-color="#000000"/>
<path d="m-12.058 121.52v369.26h919.55l-0.13086-0.051c0.0652 0.057 0.26467 0.02 0.30274-0.029 0.0381-0.049 0.0409-0.076 0.0488-0.1036 0.0159-0.056 0.0251-0.1152 0.0352-0.1972 0.0202-0.1641 0.0367-0.4063 0.0547-0.7305 0.0359-0.6484 0.0706-1.6231 0.10156-2.9043 0.0619-2.5623 0.11377-6.3513 0.1582-11.193 0.0889-9.6841 0.14532-23.579 0.17578-40.285 0.0609-33.413 0.0207-78.071-0.0605-122.76-0.16247-89.386-0.48828-178.91-0.48828-178.91v-0.2168l-17.879 1.6094-187.29-11.592-300.88-1.5137zm0.39648 0.39453 413.3 0.38086 300.87 1.5137 187.31 11.592 17.479-1.5723c7.8e-4 0.21657 0.32405 89.42 0.48632 178.7 0.0812 44.693 0.12147 89.35 0.0606 122.76-0.0305 16.706-0.085 30.601-0.17383 40.283-0.0444 4.841-0.0983 8.6272-0.16015 11.186-0.0309 1.2792-0.0642 2.2527-0.0996 2.8926-0.0177 0.32-0.0348 0.5575-0.0527 0.7032-2e-3 0.017-4e-3 0.018-6e-3 0.033h-919.01z" fill="#b8b8b8" fill-rule="evenodd" stop-color="#000000"/>
<path d="m600.53 189.93-2.73-28.1-194.59 0.32764 3.1082 43.481z" fill="#606060" stroke="#a0a0a0" stroke-linecap="round" stroke-linejoin="round" stroke-width="2.3721"/>
<g fill="#808080" fill-rule="evenodd">
<path d="m405.73 198.46 11.987 147.72 270.62-21.966-11.938-147.65z" stroke="#c0c0c0" stroke-width="2.3721"/>
<path d="m162.99 312.31 2.2392 47.117 188.71-8.9385-2.2424-47.117z" stroke="#c0c0c0" stroke-width="2.3721"/>
<path d="m-38.689 288.6 4.8738 84.239 97.205-5.6058-4.8708-84.239z" stop-color="#000000"/>
</g>
<g fill-rule="evenodd">
<path d="m59.636 281.75-99.576 5.7422 5.0098 86.607 99.574-5.7422zm-2.2324 2.5039 4.7344 81.871-94.836 5.4707-4.7383-81.871z" fill="#c0c0c0" stop-color="#000000"/>
<path d="m751.43 177.32 1.7049 83.025 92.433-1.8933-1.708-83.025z" fill="#808080" stroke="#c0c0c0" stroke-width="2.3721"/>
<path d="m714.99 412.31 4.5804 50.833 25.969-2.3505-4.5804-50.829z" fill="#808080" stroke="#c0c0c0" stroke-width="2.3721"/>
</g>
<g stroke-linecap="round" stroke-linejoin="round">
<path d="m118.89 148.15 589.37 2.2732 17.59 215.97" fill="none" stroke="#fff" stroke-width="20.558"/>
<path d="m1067.7 316.17-121.28 8.8633a25.305 25.305 0 0 0-0.0156 2e-3l-200.31 14.76-21.83 1.3555a25.305 25.305 0 0 0-0.0195 2e-3l-787 49.541a25.302 25.302 0 0 0-23.662 26.842 25.302 25.302 0 0 0 26.842 23.662l786.99-49.541 21.965-1.3652a25.305 25.305 0 0 0 0.29102-0.02l200.44-14.77 121.27-8.8632a25.302 25.302 0 0 0 23.391-27.078 25.302 25.302 0 0 0-27.08-23.391z" fill="#ff0" stop-color="#000000"/>
<path d="m118.89 148.15 589.37 2.2732 17.59 215.97" fill="none" stroke="#202020" stroke-width="15.814"/>
<path d="m1068.1 321.69-121.28 8.8652a19.769 19.769 0 0 0-0.01 0l-200.34 14.762-21.861 1.3574a19.769 19.769 0 0 0-0.0156 0l-787 49.541a19.767 19.767 0 0 0-18.486 20.971 19.767 19.767 0 0 0 20.971 18.486l786.99-49.541 21.969-1.3652a19.769 19.769 0 0 0 0.22657-0.016l200.45-14.77 121.27-8.8633a19.767 19.767 0 0 0 18.274-21.156 19.767 19.767 0 0 0-21.154-18.273z" fill="#606000" stop-color="#000000"/>
</g>
<g stroke-linejoin="round">
<path d="m893.32 49.001-307.94 0.75977h-57.785v3.1621h57.787a1.5815 1.5815 0 0 0 4e-3 0l307.94-0.75977z" fill="#6e6e6e" stop-color="#000000"/>
<path d="m889.72 49.8-6.3262 0.0156 4e-3 1.582 6.3262-0.0156zm-13.441 0.0332-6.3262 0.0156 4e-3 1.582 6.3262-0.0156zm-13.441 0.0332-6.3262 0.0156 4e-3 1.582 6.3262-0.0156zm-13.441 0.0332-6.3262 0.0156 4e-3 1.582 6.3262-0.0156zm-13.441 0.0332-6.3262 0.0156 4e-3 1.582 6.3262-0.0156zm-13.443 0.0332-6.3242 0.0156 4e-3 1.582 6.3242-0.0156zm-13.441 0.0332-6.3242 0.0156 4e-3 1.582 6.3242-0.0156zm-13.441 0.0332-6.3242 0.0156 4e-3 1.582 6.3242-0.0156zm-13.441 0.0332-6.3262 0.0156 4e-3 1.582 6.3262-0.0156zm-13.441 0.0332-6.3262 0.0156 4e-3 1.582 6.3262-0.0156zm-13.441 0.0332-6.3262 0.0156 4e-3 1.582 6.3262-0.0156zm-13.441 0.0332-6.3262 0.0156 4e-3 1.582 6.3262-0.0156zm-13.441 0.0332-6.3262 0.0156 4e-3 1.5801 6.3262-0.0137zm-13.443 0.0332-6.3242 0.0156 4e-3 1.5801 6.3242-0.0156zm-13.441 0.0332-6.3242 0.0156 4e-3 1.5801 6.3242-0.0156zm-13.441 0.0332-6.3242 0.0156 4e-3 1.5801 6.3242-0.0156zm-13.441 0.0332-6.3262 0.0156 4e-3 1.5801 6.3262-0.0156zm-13.441 0.0332-6.3262 0.0156 4e-3 1.5801 6.3262-0.0156zm-13.441 0.0332-6.3262 0.0156 4e-3 1.5801 6.3262-0.0156zm-13.441 0.0332-6.3262 0.0156 4e-3 1.5801 6.3262-0.0156zm-13.441 0.0332-6.3262 0.0156 4e-3 1.5801 6.3262-0.0156zm-13.441 0.0332-6.3262 0.0156 4e-3 1.5801 6.3262-0.0156zm-13.443 0.0332-6.3242 0.0156 4e-3 1.5801 6.3242-0.0156zm-60.09 0.0215v1.5801h6.3262v-1.5801zm13.441 0v1.5801h6.3262v-1.5801zm13.441 0v1.5801h6.3262v-1.5801zm13.443 0v1.5801h6.3242v-1.5801z" fill="#fff" stop-color="#000000" stroke-dasharray="0, 6.3255, 6.3255, 0.790687"/>
<path d="m585.44 49.761-0.11328 3.1621 252.05 9.0879 108.17 10.523 0.30664-3.1484-108.22-10.527a1.5815 1.5815 0 0 0-0.0957-8e-3z" fill="#6e6e6e" stop-color="#000000"/>
<path d="m585.41 50.552-0.0586 1.5801 5.1816 0.1875 0.0566-1.582zm12.291 0.44336-0.0566 1.5801 6.3223 0.22851 0.0566-1.582zm13.434 0.48438-0.0566 1.5801 6.3203 0.22852 0.0586-1.582zm13.434 0.48437-0.0566 1.5801 6.3203 0.22851 0.0566-1.582zm13.432 0.48438-0.0566 1.5801 6.3223 0.22852 0.0566-1.582zm13.434 0.48437-0.0566 1.5801 6.3203 0.22656 0.0586-1.5801zm13.434 0.48438-0.0566 1.5801 6.3203 0.22657 0.0566-1.5801zm13.432 0.48437-0.0566 1.5801 6.3223 0.22656 0.0566-1.5801zm13.434 0.48438-0.0566 1.5801 6.3203 0.22657 0.0586-1.5801zm13.434 0.48437-0.0566 1.5801 6.3203 0.22656 0.0566-1.5801zm13.432 0.48438-0.0566 1.5801 6.3223 0.22657 0.0566-1.5801zm13.434 0.48437-0.0566 1.5801 6.3203 0.22656 0.0586-1.5801zm13.434 0.48438-0.0566 1.5801 6.3203 0.22657 0.0566-1.5801zm13.432 0.48437-0.0566 1.5801 6.3223 0.22656 0.0566-1.5801zm13.434 0.48242-0.0566 1.582 6.3203 0.22657 0.0586-1.5801zm13.434 0.48438-0.0566 1.582 6.3203 0.22656 0.0566-1.5801zm13.432 0.48437-0.0566 1.582 6.3223 0.22657 0.0566-1.5801zm13.434 0.48438-0.0566 1.582 6.3223 0.22656 0.0566-1.5801zm13.434 0.48437-0.0566 1.582 6.3203 0.22657 0.0566-1.5801zm13.473 0.60938-0.15234 1.5742 6.2949 0.61132 0.15234-1.5742zm13.379 1.3008-0.1543 1.5742 6.2969 0.61328 0.15235-1.5742zm13.379 1.3027-0.15429 1.5742 6.2969 0.61133 0.15234-1.5742zm13.377 1.3008-0.15235 1.5742 6.2949 0.61328 0.1543-1.5742zm13.379 1.3027-0.15234 1.5742 6.2949 0.61133 0.1543-1.5742zm13.379 1.3008-0.15235 1.5742 6.2949 0.61328 0.15234-1.5742zm13.379 1.3027-0.15429 1.5723 6.2969 0.61328 0.15235-1.5742zm13.379 1.3008-0.1543 1.5742 6.2969 0.61329 0.15234-1.5742z" fill="#fff" stop-color="#000000" stroke-dasharray="0, 6.3255, 6.3255, 0.790687"/>
<path d="m-59.423 19.382-0.14063 3.1602 245.04 10.906 89.27 9.0859a1.5815 1.5815 0 0 0 0.0957 6e-3l252.69 10.381 0.13086-3.1602-252.64-10.379-89.268-9.084a1.5815 1.5815 0 0 0-0.0899-6e-3z" fill="#6e6e6e" stop-color="#000000"/>
<path d="m-59.458 20.173-0.0703 1.5781 3.6797 0.16406 0.0703-1.5801zm10.789 0.47851-0.0703 1.5801 6.3203 0.28125 0.07031-1.5801zm13.43 0.59766-0.07031 1.5801 6.3184 0.28125 0.07031-1.5801zm13.428 0.59961-0.07031 1.5781 6.3184 0.28125 0.07031-1.5781zm13.428 0.59765-0.07031 1.5781 6.3203 0.28125 0.07031-1.5781zm13.43 0.59766-0.07031 1.5781 6.3184 0.28125 0.07031-1.5781zm13.428 0.59766-0.07031 1.5781 6.3184 0.28125 0.07031-1.5781zm13.428 0.59765-0.07031 1.5781 6.3203 0.28125 0.07031-1.5781zm13.43 0.59766-0.07031 1.5801 6.3184 0.28125 0.07031-1.5801zm13.428 0.59765-0.07031 1.5801 6.3184 0.28125 0.07031-1.5801zm13.428 0.59766-0.07031 1.5801 6.3203 0.28125 0.07031-1.5801zm13.43 0.59766-0.07031 1.5801 6.3184 0.28125 0.07031-1.5801zm13.428 0.59765-0.07031 1.5801 6.3184 0.28125 0.0703-1.5801zm13.428 0.59766-0.0703 1.5801 6.3203 0.28125 0.0703-1.5801zm13.43 0.59766-0.0703 1.5801 6.3184 0.28125 0.0703-1.5801zm13.428 0.59765-0.0703 1.5801 6.3184 0.28125 0.0703-1.5801zm13.428 0.59766-0.0703 1.5801 6.3203 0.28125 0.0703-1.5801zm13.43 0.59765-0.0703 1.5801 6.3184 0.28125 0.0703-1.5801zm13.428 0.59766-0.0703 1.5801 5.9902 0.26562 0.2832 0.0293 0.16016-1.5723-0.30664-0.0312a0.79076 0.79076 0 0 0-0.0449-4e-3zm13.443 1.0215-0.16016 1.5742 6.293 0.64063 0.16016-1.5742zm13.371 1.3613-0.16016 1.5742 6.293 0.64063 0.16016-1.5742zm13.373 1.3613-0.16016 1.5742 6.293 0.64062 0.16016-1.5742zm13.373 1.3613-0.16015 1.5723 6.293 0.64063 0.16015-1.5723zm13.373 1.3613-0.16015 1.5723 6.293 0.64063 0.16016-1.5723zm13.371 1.3613-0.16016 1.5723 6.293 0.64063 0.16015-1.5742zm13.373 1.3594-0.16015 1.5742 1.6934 0.17187a0.79076 0.79076 0 0 0 0.0469 4e-3l4.6211 0.18945 0.0645-1.5801-4.5957-0.18946zm13.375 0.65234-0.0644 1.5801 6.3203 0.25977 0.0645-1.5801zm13.432 0.55079-0.0644 1.5801 6.3184 0.25977 0.0664-1.5801zm13.43 0.55273-0.0645 1.5801 6.3203 0.25976 0.0645-1.5801zm13.43 0.55078-0.0645 1.5801 6.3203 0.25976 0.0645-1.5801zm13.432 0.55274-0.0645 1.5801 6.3203 0.25977 0.0644-1.5801zm13.43 0.55078-0.0645 1.5801 6.3203 0.25977 0.0645-1.5801zm13.432 0.55273-0.0664 1.5801 6.3203 0.25781 0.0645-1.5781zm13.43 0.55078-0.0645 1.5801 6.3203 0.25977 0.0645-1.5801zm13.43 0.55274-0.0644 1.5801 6.3203 0.25782 0.0645-1.5781zm13.432 0.55078-0.0664 1.5801 6.3203 0.25976 0.0644-1.5801zm13.43 0.55273-0.0645 1.5801 6.3203 0.25781 0.0645-1.5801zm13.43 0.55078-0.0645 1.5801 6.3203 0.25977 0.0645-1.5801zm13.432 0.55274-0.0664 1.5801 6.3203 0.25781 0.0645-1.5801zm13.43 0.55078-0.0645 1.5801 6.3203 0.25976 0.0645-1.5801zm13.43 0.55273-0.0645 1.5801 6.3203 0.25781 0.0645-1.5801zm13.432 0.55078-0.0664 1.5801 6.3203 0.25977 0.0664-1.5801zm13.43 0.55274-0.0644 1.5781 6.3203 0.25977 0.0644-1.5801zm13.43 0.55078-0.0645 1.5801 6.3203 0.25976 0.0644-1.5801z" fill="#fff" stop-color="#000000" stroke-dasharray="0, 6.3255, 6.3255, 0.790687"/>
<path d="m892.39 17.638-443.05 1.8945-508.83-0.15234v3.1641l508.83 0.15039a1.5815 1.5815 0 0 0 8e-3 0l443.05-1.8926z" fill="#6e6e6e" stop-color="#000000"/>
<path d="m886.07 18.456-6.3242 0.0273 6e-3 1.582 6.3262-0.0273zm-13.441 0.0586-6.3242 0.0254 6e-3 1.582 6.3262-0.0273zm-13.441 0.0566-6.3242 0.0274 6e-3 1.5801 6.3262-0.0254zm-13.441 0.0566-6.3242 0.0274 6e-3 1.582 6.3262-0.0273zm-13.441 0.0586-6.3242 0.0273 6e-3 1.5801 6.3262-0.0273zm-13.441 0.0566-6.3262 0.0273 8e-3 1.582 6.3262-0.0273zm-13.441 0.0586-6.3262 0.0254 8e-3 1.582 6.3242-0.0273zm-13.441 0.0566-6.3262 0.0274 8e-3 1.5801 6.3242-0.0254zm-13.441 0.0566-6.3262 0.0274 8e-3 1.582 6.3242-0.0273zm-13.441 0.0586-6.3262 0.0273 8e-3 1.5801 6.3242-0.0273zm-13.441 0.0566-6.3262 0.0273 8e-3 1.582 6.3242-0.0273zm-13.441 0.0586-6.3262 0.0254 6e-3 1.582 6.3262-0.0273zm-13.441 0.0566-6.3262 0.0273 6e-3 1.582 6.3262-0.0274zm-13.443 0.0566-6.3242 0.0274 6e-3 1.582 6.3262-0.0274zm-13.441 0.0586-6.3242 0.0273 6e-3 1.5801 6.3262-0.0273zm-13.441 0.0566-6.3242 0.0273 6e-3 1.582 6.3262-0.0273zm-13.441 0.0586-6.3242 0.0254 6e-3 1.582 6.3262-0.0273zm-13.441 0.0566-6.3262 0.0273 8e-3 1.582 6.3262-0.0274zm-13.441 0.0566-6.3262 0.0273 8e-3 1.582 6.3242-0.0274zm-13.441 0.0586-6.3262 0.0273 8e-3 1.5801 6.3242-0.0254zm-13.441 0.0566-6.3262 0.0273 8e-3 1.582 6.3242-0.0273zm-13.441 0.0586-6.3262 0.0273 8e-3 1.5801 6.3242-0.0273zm-13.441 0.0566-6.3262 0.0273 8e-3 1.582 6.3242-0.0273zm-13.441 0.0586-6.3262 0.0254 6e-3 1.582 6.3262-0.0274zm-13.441 0.0566-6.3262 0.0273 6e-3 1.5801 6.3262-0.0254zm-13.443 0.0566-6.3242 0.0273 6e-3 1.582 6.3262-0.0273zm-13.441 0.0586-6.3242 0.0273 6e-3 1.5801 6.3262-0.0273zm-13.441 0.0566-6.3242 0.0273 6e-3 1.582 6.3262-0.0273zm-13.441 0.0586-6.3242 0.0254 6e-3 1.582 6.3262-0.0273zm-13.441 0.0566-6.3242 0.0273 6e-3 1.5801 6.3262-0.0254zm-555.75 0.0488v1.582l4.6484 2e-3v-1.582zm11.766 4e-3v1.582l6.3242 2e-3v-1.582zm13.441 4e-3v1.582l6.3242 2e-3 2e-3 -1.582zm517.11 0-6.3262 0.0273 8e-3 1.582 6.3262-0.0273zm-503.66 4e-3v1.582l6.3262 2e-3v-1.582zm13.441 4e-3v1.582l6.3262 2e-3v-1.582zm13.441 4e-3v1.582l6.3262 2e-3v-1.582zm13.443 4e-3 -2e-3 1.582 6.3262 2e-3v-1.582zm13.441 4e-3 -2e-3 1.582 6.3262 2e-3v-1.582zm13.441 4e-3v1.582l6.3242 2e-3v-1.582zm13.441 4e-3v1.582l6.3242 2e-3 2e-3 -1.582zm13.441 4e-3v1.582l6.3262 2e-3v-1.582zm13.441 4e-3v1.582l6.3262 2e-3v-1.582zm13.441 4e-3v1.582l6.3262 2e-3v-1.582zm13.443 6e-3 -2e-3 1.5801 6.3262 2e-3v-1.582zm13.441 4e-3 -2e-3 1.5801 6.3262 2e-3v-1.5801zm13.441 4e-3v1.5801l6.3242 2e-3v-1.5801zm13.441 4e-3v1.5801l6.3242 2e-3 2e-3 -1.5801zm315.48 2e-3 -6.3262 0.0273 8e-3 1.5801 6.3242-0.0273zm-302.04 2e-3v1.5791l6.3262 2e-3v-1.5801zm13.441 4e-3v1.5801l6.3262 2e-3v-1.5801zm13.441 4e-3v1.5801l6.3262 2e-3v-1.5801zm13.443 4e-3 -2e-3 1.5801 6.3262 2e-3v-1.5801zm13.441 4e-3 -2e-3 1.582 6.3262 2e-3v-1.582zm13.441 4e-3v1.582l6.3242 2e-3v-1.582zm13.441 4e-3v1.582l6.3242 2e-3 2e-3 -1.582zm13.441 4e-3v1.582l6.3262 2e-3v-1.582zm13.441 4e-3v1.582l6.3262 2e-3v-1.582zm13.441 4e-3v1.582l6.3262 2e-3v-1.582zm13.443 4e-3 -2e-3 1.582 6.3262 2e-3v-1.582zm13.441 4e-3 -2e-3 1.582 6.3262 2e-3v-1.582zm13.441 4e-3v1.582l6.3242 2e-3v-1.582zm13.441 4e-3v1.582l6.3242 2e-3 2e-3 -1.582zm13.441 4e-3v1.582l6.3262 2e-3v-1.582zm100.41 0-6.3262 0.0273 8e-3 1.582 6.3242-0.0273zm-86.973 4e-3v1.582l6.3262 2e-3v-1.582zm13.441 4e-3v1.582l6.3262 2e-3v-1.582zm13.443 4e-3 -2e-3 1.582 6.3262 2e-3v-1.582zm13.441 6e-3 -2e-3 1.5801 6.3262 2e-3v-1.582zm13.441 4e-3v1.5801l6.3242 2e-3v-1.5801zm13.441 4e-3v1.5801l6.3242 2e-3 2e-3 -1.5801z" fill="#fff" stop-color="#000000" stroke-dasharray="0, 6.3255, 6.3255, 0.790687"/>
<path d="m-15.884 49.38-2e-3 3.1641 444.62 0.30273 98.861 0.0762 2e-3 -3.1621-98.859-0.0781a1.5815 1.5815 0 0 0-2e-3 0z" fill="#6e6e6e" stop-color="#000000"/>
<path d="m-9.5597 50.175v1.582l6.3242 4e-3 2e-3 -1.582zm13.441 0.01v1.582l6.3242 4e-3 2e-3 -1.582zm13.441 0.01v1.5801l6.3262 4e-3v-1.5801zm13.443 8e-3 -2e-3 1.582 6.3262 4e-3v-1.5801zm13.441 0.01-2e-3 1.582 6.3262 4e-3v-1.582zm13.441 0.01-2e-3 1.5801 6.3262 6e-3 2e-3 -1.582zm13.441 8e-3 -2e-3 1.582 6.3262 4e-3 2e-3 -1.5801zm13.441 0.01v1.582l6.3242 4e-3 2e-3 -1.582zm13.441 0.01v1.5801l6.3242 6e-3 2e-3 -1.582zm13.441 8e-3v1.582l6.3262 4e-3v-1.5801zm13.443 0.01-2e-3 1.582 6.3262 4e-3v-1.582zm13.441 0.01-2e-3 1.5801 6.3262 6e-3v-1.582zm13.441 8e-3 -2e-3 1.582 6.3262 4e-3 2e-3 -1.5801zm13.441 0.01-2e-3 1.582 6.3262 4e-3 2e-3 -1.582zm13.441 0.01v1.582l6.3242 4e-3 2e-3 -1.582zm13.441 0.01v1.5801l6.3242 4e-3 2e-3 -1.5801zm13.441 8e-3v1.582l6.3262 4e-3v-1.582zm13.443 0.01-2e-3 1.582 6.3262 4e-3v-1.582zm13.441 0.01-2e-3 1.5801 6.3262 4e-3v-1.5801zm13.441 8e-3 -2e-3 1.582 6.3262 4e-3 2e-3 -1.582zm13.441 0.01-2e-3 1.582 6.3262 4e-3 2e-3 -1.582zm13.441 0.01v1.5801l6.3242 6e-3 2e-3 -1.582zm13.441 8e-3v1.582l6.3242 4e-3 2e-3 -1.5801zm13.441 0.01v1.582l6.3262 4e-3v-1.582zm13.443 0.01-2e-3 1.5801 6.3262 6e-3v-1.582zm13.441 8e-3 -2e-3 1.582 6.3262 4e-3v-1.5801zm13.441 0.01-2e-3 1.582 6.3262 4e-3 2e-3 -1.582zm13.441 0.01-2e-3 1.5801 6.3262 6e-3 2e-3 -1.582zm13.441 8e-3v1.582l6.3242 4e-3 2e-3 -1.5801zm13.441 0.01v1.582l6.3242 4e-3 2e-3 -1.582zm13.441 0.01v1.5801l6.3262 6e-3v-1.582zm13.443 8e-3 -2e-3 1.582 6.3262 4e-3v-1.5801zm13.441 0.01-2e-3 1.582 6.3262 4e-3v-1.582zm13.441 0.01-2e-3 1.582 6.3262 4e-3 2e-3 -1.5801zm13.441 0.0117-2e-3 1.5801 6.3262 6e-3 2e-3 -1.582zm13.441 0.01v1.582l6.3242 4e-3 2e-3 -1.582zm13.441 0.01v1.582l6.3242 4e-3 2e-3 -1.5801zm13.441 0.0117v1.5801l6.3262 6e-3v-1.582zm13.443 0.01-2e-3 1.582 6.3262 4e-3v-1.5801zm13.441 0.01-2e-3 1.582 6.3262 6e-3v-1.582z" fill="#fff" stop-color="#000000" stroke-dasharray="0, 6.3255, 6.3255, 0.790687"/>
<path d="m-10.23 75.438-0.0078 3.1641 1185.8 3.332 0.01-3.1621z" fill="#6e6e6e" stop-color="#000000"/>
<path d="m-3.9054 76.247-0.0039 1.582 6.3242 0.0176 0.0059-1.582zm13.441 0.0391-0.0039 1.5801 6.3242 0.0176 0.0059-1.5801zm13.441 0.0371-0.0039 1.582 6.3262 0.0176 0.0039-1.582zm13.441 0.0371-0.0039 1.582 6.3262 0.0176 0.0039-1.582zm13.441 0.0391-0.0039 1.5801 6.3262 0.0176 0.0039-1.5801zm13.443 0.0371-0.0059 1.582 6.3262 0.0176 0.0039-1.582zm13.441 0.0371-0.0059 1.582 6.3262 0.0176 0.0039-1.582zm13.441 0.0391-0.0059 1.5801 6.3262 0.0176 0.0039-1.5801zm13.441 0.0371-4e-3 1.582 6.3242 0.0176 6e-3 -1.582zm13.441 0.0371-4e-3 1.582 6.3242 0.0176 6e-3 -1.582zm13.441 0.0391-4e-3 1.5801 6.3242 0.0176 6e-3 -1.5801zm13.441 0.0371-4e-3 1.582 6.3262 0.0176 4e-3 -1.582zm13.441 0.0371-4e-3 1.582 6.3262 0.0176 4e-3 -1.582zm13.441 0.0391-4e-3 1.5801 6.3262 0.0176 4e-3 -1.5801zm13.443 0.0371-6e-3 1.582 6.3262 0.0176 4e-3 -1.582zm13.441 0.0371-6e-3 1.582 6.3262 0.0176 4e-3 -1.582zm13.441 0.0391-4e-3 1.5801 6.3242 0.0176 4e-3 -1.5801zm13.441 0.0371-4e-3 1.582 6.3242 0.0176 6e-3 -1.582zm13.441 0.0371-4e-3 1.582 6.3242 0.0176 6e-3 -1.582zm13.441 0.0391-4e-3 1.5801 6.3262 0.0176 4e-3 -1.5801zm13.441 0.0371-4e-3 1.582 6.3262 0.0176 4e-3 -1.582zm13.441 0.0371-4e-3 1.582 6.3262 0.0176 4e-3 -1.582zm13.443 0.0391-6e-3 1.5801 6.3262 0.0176 4e-3 -1.5801zm13.441 0.0371-6e-3 1.582 6.3262 0.0176 4e-3 -1.582zm13.441 0.0371-6e-3 1.582 6.3262 0.0176 4e-3 -1.5801zm13.441 0.0391-4e-3 1.5801 6.3242 0.0195 6e-3 -1.582zm13.441 0.0371-4e-3 1.582 6.3242 0.0176 6e-3 -1.582zm13.441 0.0371-4e-3 1.582 6.3242 0.0176 6e-3 -1.5801zm13.441 0.0391-4e-3 1.5801 6.3262 0.0195 4e-3 -1.582zm13.441 0.0371-4e-3 1.582 6.3262 0.0176 4e-3 -1.582zm13.441 0.0371-4e-3 1.582 6.3262 0.0176 4e-3 -1.5801zm13.443 0.0391-6e-3 1.5801 6.3262 0.0195 4e-3 -1.582zm13.441 0.0371-6e-3 1.582 6.3262 0.0176 4e-3 -1.582zm13.441 0.0371-4e-3 1.582 6.3242 0.0176 4e-3 -1.5801zm13.441 0.0391-4e-3 1.5801 6.3242 0.0195 6e-3 -1.582zm13.441 0.0371-4e-3 1.582 6.3242 0.0176 6e-3 -1.582zm13.441 0.0371-4e-3 1.582 6.3262 0.0176 4e-3 -1.5801zm13.441 0.0391-4e-3 1.5801 6.3262 0.0195 4e-3 -1.582zm13.441 0.0371-4e-3 1.582 6.3262 0.0176 4e-3 -1.582zm13.441 0.0391-4e-3 1.5801 6.3262 0.0176 4e-3 -1.5801zm13.443 0.0371-6e-3 1.582 6.3262 0.0176 4e-3 -1.582zm13.441 0.0371-6e-3 1.582 6.3262 0.0176 4e-3 -1.582zm13.441 0.0391-4e-3 1.5801 6.3242 0.0176 4e-3 -1.5801zm13.441 0.0371-4e-3 1.582 6.3242 0.0176 6e-3 -1.582zm13.441 0.0371-4e-3 1.582 6.3242 0.0176 6e-3 -1.582zm13.441 0.0391-4e-3 1.5801 6.3262 0.0176 4e-3 -1.5801zm13.441 0.0371-4e-3 1.582 6.3262 0.0176 4e-3 -1.582zm13.441 0.0371-4e-3 1.582 6.3262 0.0176 4e-3 -1.582zm13.443 0.0391-6e-3 1.5801 6.3262 0.0176 4e-3 -1.5801zm13.441 0.0371-6e-3 1.582 6.3262 0.0176 4e-3 -1.582zm13.441 0.0371-6e-3 1.582 6.3262 0.0176 4e-3 -1.582zm13.441 0.0391-4e-3 1.5801 6.3242 0.0176 6e-3 -1.5801zm13.441 0.0371-4e-3 1.582 6.3242 0.0176 6e-3 -1.582zm13.441 0.0371-4e-3 1.582 6.3242 0.0176 6e-3 -1.582zm13.441 0.0391-4e-3 1.5801 6.3262 0.0176 4e-3 -1.5801zm13.441 0.0371-4e-3 1.582 6.3262 0.0176 4e-3 -1.582zm13.441 0.0371-4e-3 1.582 6.3262 0.0176 4e-3 -1.582zm13.443 0.0391-6e-3 1.5801 6.3262 0.0176 4e-3 -1.5801zm13.441 0.0371-6e-3 1.582 6.3262 0.0176 4e-3 -1.582zm13.441 0.0371-4e-3 1.582 6.3242 0.0176 4e-3 -1.582zm13.441 0.0391-4e-3 1.5801 6.3242 0.0176 6e-3 -1.5801zm13.441 0.0371-4e-3 1.582 6.3242 0.0176 6e-3 -1.582zm13.441 0.0371-4e-3 1.582 6.3262 0.0176 4e-3 -1.582zm13.441 0.0391-4e-3 1.5801 6.3262 0.0176 4e-3 -1.5801zm13.441 0.0371-4e-3 1.582 6.3262 0.0176 4e-3 -1.582zm13.443 0.0371-6e-3 1.582 6.3262 0.0176 4e-3 -1.5801zm13.441 0.0391-6e-3 1.5801 6.3262 0.0195 4e-3 -1.582zm13.441 0.0371-6e-3 1.582 6.3262 0.0176 4e-3 -1.582zm13.441 0.0371-4e-3 1.582 6.3242 0.0176 6e-3 -1.5801zm13.441 0.0391-4e-3 1.5801 6.3242 0.0195 6e-3 -1.582zm13.441 0.0371-4e-3 1.582 6.3242 0.0176 6e-3 -1.582zm13.441 0.0371-4e-3 1.582 6.3262 0.0176 4e-3 -1.5801zm13.441 0.0391-4e-3 1.5801 6.3262 0.0195 4e-3 -1.582zm13.441 0.0371-4e-3 1.582 6.3262 0.0176 4e-3 -1.582zm13.443 0.0371-6e-3 1.582 6.3262 0.0176 4e-3 -1.5801zm13.441 0.0391-0.01 1.5801 6.3262 0.0195v-1.582zm13.441 0.0371v1.582l6.3242 0.0176v-1.582zm13.441 0.0391v1.5801l6.3242 0.0176 0.01-1.5801zm13.441 0.0371v1.582l6.3242 0.0176 0.01-1.582zm13.441 0.0371v1.582l6.3262 0.0176v-1.582zm13.441 0.0391v1.5801l6.3262 0.0176v-1.5801zm13.441 0.0371v1.582l6.3262 0.0176v-1.582zm13.441 0.0371v1.582l6.3262 0.0176v-1.582zm13.443 0.0391-0.01 1.5801 6.3262 0.0176v-1.5801zm13.441 0.0371-0.01 1.582 6.3262 0.0176v-1.582zm13.441 0.0371v1.582l6.3242 0.0176v-1.582zm13.441 0.0391v1.5801l6.3242 0.0176 0.01-1.5801zm13.441 0.0371v1.582l6.3242 0.0176 0.01-1.582z" fill="#fff" stop-color="#000000" stroke-dasharray="0, 6.3255, 6.3255, 0.790687"/>
<path d="m713.67 216.79a4.7441 4.7441 0 0 0-4.3426 5.1132l0.77062 9.4574a4.7441 4.7441 0 0 0 5.1132 4.3426 4.7441 4.7441 0 0 0 4.3426-5.1132l-0.76906-9.4574a4.7441 4.7441 0 0 0-5.1148-4.3426zm2.3118 28.371a4.7441 4.7441 0 0 0-4.3442 5.1132l0.77061 9.4574a4.7441 4.7441 0 0 0 5.1132 4.3426 4.7441 4.7441 0 0 0 4.3426-5.1132l-0.76907-9.4574a4.7441 4.7441 0 0 0-5.1132-4.3426zm2.3103 28.371a4.7441 4.7441 0 0 0-4.3442 5.1132l0.77062 9.4574a4.7441 4.7441 0 0 0 5.1132 4.3426 4.7441 4.7441 0 0 0 4.3442-5.1132l-0.77061-9.4574a4.7441 4.7441 0 0 0-5.1132-4.3426zm2.3103 28.371a4.7441 4.7441 0 0 0-4.3442 5.1132l0.77061 9.4574a4.7441 4.7441 0 0 0 5.1132 4.3442 4.7441 4.7441 0 0 0 4.3441-5.1148l-0.77061-9.4558a4.7441 4.7441 0 0 0-5.1132-4.3442zm2.3103 28.371a4.7441 4.7441 0 0 0-4.3426 5.1148l0.76907 9.4558a4.7441 4.7441 0 0 0 5.1148 4.3442 4.7441 4.7441 0 0 0 4.3426-5.1132l-0.77061-9.4574a4.7441 4.7441 0 0 0-5.1132-4.3442zm-80.883-184.84a4.7446 4.7446 0 0 0-3.3728 1.3899l-19.679 19.678h-53.869a4.7446 4.7446 0 0 0-4.7441 4.7441v31.265a4.7441 4.7441 0 0 0 4.7441 4.7441 4.7441 4.7441 0 0 0 4.7441-4.7441v-26.52h51.09a4.7446 4.7446 0 0 0 3.3542-1.3883l19.671-19.671 59.922 0.23009 5.4329 66.724a4.7441 4.7441 0 0 0 5.1148 4.3426 4.7441 4.7441 0 0 0 4.3426-5.1132l-5.7881-71.065a4.7446 4.7446 0 0 0-4.7102-4.3596z" fill="#0f0" stop-color="#000000" stroke="#000" stroke-linecap="round" stroke-width="7.5591" style="paint-order:markers stroke fill"/>
</g>
<g fill="#fff" stroke="#000" stroke-linecap="round" stroke-linejoin="round" stroke-width="7.559">
<path d="m770.71 227.53q-0.0118-0.53321 0.35263-0.94136 0.39108-0.40873 0.95095-0.42109l3.9457-0.0871-0.34026-15.41-3.9457 0.0871q-0.55987 0.0124-0.96861-0.37871-0.38207-0.39167-0.39443-0.95153-0.0118-0.53321 0.35263-0.94135 0.39108-0.40874 0.95095-0.4211l6.6384-0.14658 0.39972 18.102 2.6127-0.0577-0.12009-5.4387q-0.0124-0.55986 0.35205-0.96801 0.39107-0.40874 0.95094-0.4211 0.55986-0.0124 0.9686 0.37872 0.40873 0.39107 0.42109 0.95093l0.14953 6.7717q0.0124 0.55987-0.37871 0.9686-0.39107 0.40873-0.95094 0.42109l-10.584 0.23371q-0.55986 0.0124-0.9686-0.37871-0.38207-0.39166-0.39443-0.95152zm19.246-1.7586-0.34026-15.41q-0.0241-1.0931 0.75802-1.9106 0.78215-0.81747 1.8752-0.8416l7.8914-0.17425q1.0664-0.0236 1.8839 0.75859 0.84413 0.78157 0.86827 1.8746l0.34026 15.41q0.0241 1.0931-0.78468 1.9111-0.78215 0.81747-1.8486 0.84102l-7.8914 0.17425q-1.0931 0.0241-1.9105-0.75801-0.81747-0.78214-0.84161-1.8752zm2.6927-0.0594 7.8914-0.17426-0.34026-15.41-7.8914 0.17425zm16.587-0.15289q-0.0124-0.55986 0.35264-0.94135 0.39107-0.40874 0.95094-0.4211 0.31993-7e-3 0.53556 0.0949l2.4218 0.96011 6.3185-0.13951-0.14069-6.3718-7.9448 0.17543-0.25902-11.731 9.2778-0.20487q0.55987-0.0124 0.9686 0.37871 0.40873 0.39108 0.4205 0.92429 0.0124 0.55986-0.37871 0.9686-0.39107 0.40873-0.95093 0.4211l-6.5851 0.1454 0.14011 6.3452 5.2521-0.11598q1.0664-0.0235 1.8845 0.78527 0.84412 0.78155 0.86767 1.848l0.1407 6.3718q0.0241 1.0931-0.78467 1.9111-0.78215 0.81746-1.8486 0.84101l-6.0519 0.13363q-0.5332 0.0118-1.096-0.10916-0.53614-0.12152-0.88567-0.24718-0.35012-0.15231-0.94253-0.40596-0.59301-0.28031-0.8353-0.38165-0.80746-0.32893-0.82748-1.2354z" style="paint-order:markers stroke fill" aria-label="105"/>
<path d="m236.24 341.35q-0.0282-0.53259 0.3234-0.95179 0.37826-0.42062 0.93747-0.45027l3.9412-0.20897-0.8161-15.392-3.9412 0.20897q-0.55921 0.0297-0.97983-0.34861-0.39399-0.37968-0.42364-0.9389-0.0282-0.53258 0.32339-0.9518 0.37826-0.42061 0.93748-0.45026l6.6307-0.35158 0.95871 18.081 2.6097-0.13837-0.28803-5.4324q-0.0297-0.55922 0.32199-0.97843 0.37826-0.42062 0.93747-0.45027 0.55921-0.0297 0.97984 0.34862 0.42062 0.37826 0.45027 0.93747l0.35863 6.7639q0.0297 0.55921-0.34861 0.97983-0.37827 0.42062-0.93748 0.45027l-10.572 0.56054q-0.55922 0.0297-0.97983-0.34861-0.394-0.37967-0.42365-0.93889zm19.182-2.3523-0.8161-15.392q-0.0579-1.0918 0.69863-1.933 0.75652-0.84124 1.8483-0.89913l7.8823-0.41794q1.0652-0.0565 1.9064 0.70006 0.86787 0.7551 0.92576 1.8469l0.8161 15.392q0.0579 1.0918-0.72526 1.9344-0.75652 0.84124-1.8217 0.89772l-7.8823 0.41793q-1.0918 0.0579-1.933-0.69863-0.84124-0.75652-0.89913-1.8483zm2.6896-0.1426 7.8823-0.41794-0.8161-15.392-7.8823 0.41794zm16.634 0.45324q-0.0282-0.53259 0.3234-0.95179 0.37826-0.42062 0.93748-0.45027l9.2404-0.48995-0.26545-5.0063q-0.0282-0.5326-0.47549-0.90944-0.42203-0.4049-0.95462-0.37666l-5.246 0.27816q-0.55922 0.0297-0.97842-0.32198-0.394-0.37967-0.42365-0.9389-0.0297-0.55921 0.32199-0.97842 0.37826-0.42062 0.93747-0.45027l5.246-0.27815q0.55922-0.0297 0.93748-0.45028 0.37826-0.42062 0.35002-0.9532l-0.26544-5.0063-9.2404 0.48995q-0.55922 0.0297-0.97984-0.34861-0.39399-0.37968-0.42364-0.9389-0.0282-0.53258 0.3234-0.9518 0.37826-0.42061 0.93747-0.45026l9.2404-0.48995q1.0652-0.0565 1.9064 0.70005 0.86787 0.75511 0.92576 1.8469l0.26544 5.0063q0.0819 1.5445-0.92258 2.746 1.1259 1.0886 1.2078 2.6331l0.26545 5.0063q0.0579 1.0918-0.72527 1.9344-0.75652 0.84124-1.8217 0.89772l-9.2404 0.48994q-0.55921 0.0297-0.97983-0.34861-0.394-0.37967-0.42365-0.93889z" style="paint-order:markers stroke fill" aria-label="103"/>
<path d="m353.64 55.349v-19.44h9.2267q1.6533 0 2.8534 1.2 1.2 1.2 1.2 2.8533v1.3867q0 1.6533-1.2267 2.8533-1.2 1.2-2.8267 1.2h-1.5467l5.4134 9.28q0.18667 0.37334 0.18667 0.66667 0 0.56-0.4 0.96t-0.96 0.4q-0.77334 0-1.1733-0.66667l-6.2134-10.64h-1.84v9.9467q0 0.56-0.4 0.96t-0.96 0.4q-0.56001 0-0.96001-0.4-0.37333-0.4-0.37333-0.96zm2.6933-12.64h6.5334q0.53333 0 0.93334-0.4 0.42667-0.42667 0.42667-0.96v-1.3867q0-0.56-0.42667-0.96-0.40001-0.4-0.93334-0.4h-6.5334zm16.587 12.64v-18.107q0-0.53334 0.37334-0.93334 0.4-0.4 0.96-0.4t0.96001 0.4q0.4 0.4 0.4 0.93334v6.5867l2.56-1.6267q1.0133-0.64 2.16-0.64h1.52q1.6267 0 2.7734 1.1467 1.1733 1.12 1.2267 2.72l0.32 9.92q0 0.56-0.4 0.96-0.37334 0.4-0.93334 0.4-0.53334 0-0.93334-0.37334-0.4-0.4-0.4-0.93334l-0.34667-9.8934q-0.0533-0.50667-0.42667-0.88-0.34667-0.37334-0.88-0.37334h-1.8933l-4.3467 2.8v8.2934q0 0.56-0.4 0.96-0.40001 0.4-0.96001 0.4t-0.96-0.4q-0.37334-0.4-0.37334-0.96zm19.28-3.4667v-5.4934q0-0.93334 0.42666-1.7333 0.42667-0.8 0.77334-1.12 0.34667-0.32 1.1733-1.0133 1.0933-0.96 2.5867-0.96h3.3334q0.26667 0 0.50667 0.02667 0.26667 0.02667 0.53334 0.10667 0.26666 0.08 0.42666 0.13333 0.16 0.05333 0.42667 0.21333 0.26667 0.16 0.34667 0.21334 0.10667 0.05333 0.37334 0.29334 0.26666 0.21333 0.32 0.24 0.0533 0.02667 0.34667 0.29334l0.29333 0.26667q1.4133 1.2267 1.4133 3.04v3.3067q0 0.56-0.4 0.96t-0.96001 0.4h-9.2267v0.82667q0 0.32 0.16 0.61334t0.32 0.45334q0.18667 0.16 0.50667 0.42667 0.32001 0.24 0.42667 0.32 0.4 0.32 0.85334 0.32h6.96q0.56001 0 0.96001 0.4t0.4 0.93334q0 0.56-0.4 0.96t-0.96001 0.4h-6.96q-0.42667 0-0.82667-0.08-0.37334-0.10667-0.64-0.18667-0.26667-0.10667-0.64001-0.34667-0.34667-0.24-0.50667-0.34667-0.13333-0.10667-0.50667-0.42667-0.34666-0.32-0.45333-0.4-1.3867-1.2533-1.3867-3.04zm2.6933-3.52h7.8934v-1.9733q0-0.69334-0.8-1.4133-0.8-0.72-1.4933-0.72h-3.3334q-0.37334 0-0.66667 0.16-0.29333 0.16-0.69334 0.56-0.4 0.4-0.45333 0.42667-0.45334 0.37334-0.45334 0.98667zm17.893 6.9867q0-0.53334 0.40001-0.93334 0.4-0.4 0.96-0.4h2.64v-9.76h-2.64q-0.56 0-0.96-0.37334-0.40001-0.4-0.40001-0.96t0.40001-0.96q0.4-0.4 0.96-0.4h3.9734q0.53334 0 0.93334 0.4t0.4 0.96v11.093h2.6134q0.56 0 0.96001 0.4 0.4 0.4 0.4 0.93334 0 0.56-0.4 0.96-0.40001 0.4-0.96001 0.4h-7.92q-0.56 0-0.96-0.4-0.40001-0.4-0.40001-0.96zm2.64-18.107v-1.12q0-0.56 0.4-0.93334 0.4-0.4 0.96-0.4h1.3333q0.53334 0 0.93334 0.4 0.4 0.37334 0.4 0.93334v1.12q0 0.56-0.4 0.96t-0.93334 0.4h-1.3333q-0.56 0-0.96-0.4t-0.4-0.96zm15.333 18.107v-12.427q0-0.56 0.37334-0.96 0.4-0.4 0.96-0.4 0.56001 0 0.96001 0.4t0.4 0.96v0.90667l2.56-1.6267q1.0133-0.64 2.16-0.64h1.52q1.6267 0 2.7734 1.1467 1.1733 1.12 1.2267 2.72l0.32 9.92q0 0.56-0.4 0.96-0.37333 0.4-0.93334 0.4-0.53333 0-0.93333-0.37334-0.40001-0.4-0.40001-0.93334l-0.34666-9.8934q-0.0533-0.50667-0.42667-0.88-0.34667-0.37334-0.88001-0.37334h-1.8933l-4.3467 2.8v8.2934q0 0.56-0.4 0.96t-0.96001 0.4q-0.56 0-0.96-0.4-0.37334-0.4-0.37334-0.96zm19.28 0v-18.107q0-0.53334 0.37333-0.93334 0.4-0.4 0.96001-0.4 0.56 0 0.96 0.4t0.4 0.93334v6.5867l2.56-1.6267q1.0133-0.64 2.16-0.64h1.52q1.6267 0 2.7734 1.1467 1.1733 1.12 1.2267 2.72l0.32001 9.92q0 0.56-0.40001 0.96-0.37333 0.4-0.93333 0.4-0.53334 0-0.93334-0.37334-0.4-0.4-0.4-0.93334l-0.34667-9.8934q-0.0533-0.50667-0.42667-0.88-0.34667-0.37334-0.88001-0.37334h-1.8933l-4.3467 2.8v8.2934q0 0.56-0.4 0.96t-0.96 0.4q-0.56001 0-0.96001-0.4-0.37333-0.4-0.37333-0.96zm19.28-3.4667v-5.4934q0-0.93334 0.42667-1.7333t0.77333-1.12q0.34667-0.32 1.1733-1.0133 1.0933-0.96 2.5867-0.96h3.3334q0.26667 0 0.50667 0.02667 0.26667 0.02667 0.53334 0.10667 0.26667 0.08 0.42667 0.13333 0.16 0.05333 0.42666 0.21333 0.26667 0.16 0.34667 0.21334 0.10667 0.05333 0.37334 0.29334 0.26667 0.21333 0.32 0.24 0.0533 0.02667 0.34667 0.29334l0.29333 0.26667q1.4133 1.2267 1.4133 3.04v3.3067q0 0.56-0.4 0.96t-0.96 0.4h-9.2267v0.82667q0 0.32 0.16 0.61334 0.16001 0.29334 0.32001 0.45334 0.18666 0.16 0.50667 0.42667 0.32 0.24 0.42666 0.32 0.40001 0.32 0.85334 0.32h6.96q0.56 0 0.96 0.4t0.4 0.93334q0 0.56-0.4 0.96t-0.96 0.4h-6.96q-0.42667 0-0.82667-0.08-0.37333-0.10667-0.64-0.18667-0.26667-0.10667-0.64001-0.34667-0.34666-0.24-0.50666-0.34667-0.13334-0.10667-0.50667-0.42667-0.34667-0.32-0.45334-0.4-1.3867-1.2533-1.3867-3.04zm2.6933-3.52h7.8934v-1.9733q0-0.69334-0.80001-1.4133-0.8-0.72-1.4933-0.72h-3.3334q-0.37333 0-0.66667 0.16-0.29333 0.16-0.69333 0.56-0.40001 0.4-0.45334 0.42667-0.45334 0.37334-0.45334 0.98667zm16.587 5.8667q0-0.56 0.37334-0.93334 0.37333-0.4 0.93334-0.4 0.48 0 0.98667 0.4 0.50667 0.37334 0.74667 0.45334 0.0533 0.02667 0.32 0.16 0.26667 0.10667 0.37333 0.10667h5.4134q0.56001 0 0.98668-0.4 0.42667-0.42667 0.42667-0.96v-0.10667q0-0.4-0.26667-0.72-0.24-0.34667-0.56001-0.50667l-7.3867-3.2q-0.90667-0.4-1.4667-1.28-0.56001-0.90667-0.56001-1.9467 0-1.36 0.98668-2.32 1.0133-1.0133 2.4267-1.0133h5.7067q2 0 3.28 1.68 0.26666 0.34667 0.26666 0.8 0 0.56-0.4 0.96t-0.96 0.4q-0.48001 0-1.0933-0.56-0.58667-0.58667-1.0933-0.58667h-5.7067q-0.29333 0-0.53333 0.21333-0.24 0.21334-0.24 0.50667 0.08 0.56 0.45333 0.69334l7.4134 3.2q1.0133 0.45334 1.7067 1.4667 0.72 0.98667 0.72 2.2133v0.10667q0 1.68-1.2267 2.88-1.2 1.1733-2.88 1.1733h-5.04q-1.9467 0-3.6-1.4133-0.50667-0.42667-0.50667-1.0667zm19.28 0q0-0.56 0.37334-0.93334 0.37333-0.4 0.93334-0.4 0.48 0 0.98667 0.4 0.50667 0.37334 0.74667 0.45334 0.0533 0.02667 0.32 0.16 0.26667 0.10667 0.37333 0.10667h5.4134q0.56 0 0.98667-0.4 0.42667-0.42667 0.42667-0.96v-0.10667q0-0.4-0.26667-0.72-0.24-0.34667-0.56001-0.50667l-7.3867-3.2q-0.90667-0.4-1.4667-1.28-0.56001-0.90667-0.56001-1.9467 0-1.36 0.98668-2.32 1.0133-1.0133 2.4267-1.0133h5.7067q2 0 3.28 1.68 0.26666 0.34667 0.26666 0.8 0 0.56-0.4 0.96t-0.96 0.4q-0.48 0-1.0933-0.56-0.58667-0.58667-1.0933-0.58667h-5.7067q-0.29333 0-0.53333 0.21333-0.24 0.21334-0.24 0.50667 0.08 0.56 0.45333 0.69334l7.4134 3.2q1.0133 0.45334 1.7067 1.4667 0.72 0.98667 0.72 2.2133v0.10667q0 1.68-1.2267 2.88-1.2 1.1733-2.88 1.1733h-5.04q-1.9467 0-3.6-1.4133-0.50667-0.42667-0.50667-1.0667zm19.28-2.3467v-5.4934q0-0.93334 0.42667-1.7333t0.77334-1.12q0.34667-0.32 1.1733-1.0133 1.0933-0.96 2.5867-0.96h3.3334q0.26667 0 0.50667 0.02667 0.26667 0.02667 0.53333 0.10667 0.26667 0.08 0.42667 0.13333 0.16 0.05333 0.42667 0.21333 0.26667 0.16 0.34667 0.21334 0.10667 0.05333 0.37333 0.29334 0.26667 0.21333 0.32001 0.24 0.0533 0.02667 0.34666 0.29334l0.29334 0.26667q1.4133 1.2267 1.4133 3.04v3.3067q0 0.56-0.4 0.96t-0.96001 0.4h-9.2267v0.82667q0 0.32 0.16 0.61334t0.32 0.45334q0.18667 0.16 0.50667 0.42667 0.32 0.24 0.42667 0.32 0.4 0.32 0.85334 0.32h6.96q0.56001 0 0.96001 0.4t0.4 0.93334q0 0.56-0.4 0.96t-0.96001 0.4h-6.96q-0.42667 0-0.82667-0.08-0.37334-0.10667-0.64001-0.18667-0.26666-0.10667-0.64-0.34667-0.34667-0.24-0.50667-0.34667-0.13333-0.10667-0.50667-0.42667-0.34667-0.32-0.45333-0.4-1.3867-1.2533-1.3867-3.04zm2.6934-3.52h7.8934v-1.9733q0-0.69334-0.8-1.4133-0.80001-0.72-1.4933-0.72h-3.3334q-0.37334 0-0.66667 0.16-0.29334 0.16-0.69334 0.56t-0.45333 0.42667q-0.45334 0.37334-0.45334 0.98667zm16.587 6.9867v-12.427q0-0.56 0.37333-0.96 0.40001-0.4 0.96001-0.4t0.96 0.4 0.4 0.96v0.90667l2.56-1.6267q1.0133-0.64 2.16-0.64h1.52q1.6267 0 2.7733 1.1467 1.1733 1.12 1.2267 2.72l0.32 9.92q0 0.56-0.4 0.96-0.37334 0.4-0.93334 0.4-0.53334 0-0.93334-0.37334-0.4-0.4-0.4-0.93334l-0.34667-9.8934q-0.0533-0.50667-0.42667-0.88-0.34667-0.37334-0.88-0.37334h-1.8934l-4.3467 2.8v8.2934q0 0.56-0.4 0.96t-0.96 0.4-0.96001-0.4q-0.37333-0.4-0.37333-0.96zm19.28 0v-18.107q0-0.53334 0.37333-0.93334 0.40001-0.4 0.96001-0.4t0.96 0.4q0.40001 0.4 0.40001 0.93334v6.0267q1.8133-1.7067 3.6-1.7067h2q0.34667 0 0.66667 0.05333 0.32 0.02667 0.64001 0.18667 0.32 0.13333 0.50667 0.21334 0.18666 0.05333 0.50666 0.32 0.32001 0.24 0.40001 0.32 0.10666 0.05333 0.45333 0.37334 0.37334 0.29334 0.4 0.32 1.4133 1.2267 1.4133 3.04v5.4934q0 0.72-0.18666 1.28-0.16 0.56-0.64001 1.12-0.48 0.53334-0.69333 0.72-0.18667 0.16-0.88001 0.74667-1.04 0.96-2.5867 0.96h-2q-0.77333 0-1.4933-0.29334-0.72-0.29333-1.12-0.58667-0.37334-0.32-0.98667-0.88v0.4q0 0.56-0.40001 0.96-0.4 0.4-0.96 0.4t-0.96001-0.4q-0.37333-0.4-0.37333-0.96zm2.6934-4.6134q0 0.61334 0.45333 0.98667l2.2934 1.9733q0.32 0.32 0.85333 0.32h2q0.37334 0 0.66667-0.16 0.29334-0.16 0.69334-0.56t0.45334-0.42667q0.48-0.37334 0.48-0.98667v-5.4934q0-0.37334-0.18667-0.64-0.16-0.26667-0.58667-0.61334-0.4-0.34667-0.42667-0.37334-0.56-0.50667-1.0933-0.50667h-2q-0.53333 0-0.85333 0.32l-2.2934 1.9733q-0.45333 0.29333-0.45333 0.98667zm16.587 1.9733v-1.4933q0-1.6533 1.1733-2.8267t2.8-1.1733h5.1467q0.64001 0 1.1733 0.18667 0-0.18667-0.0267-0.61334 0-0.45334-0.0267-0.64 0-0.21334-0.0533-0.58667-0.0267-0.37334-0.10667-0.53334-0.08-0.18667-0.24-0.4-0.13334-0.21333-0.37334-0.29334-0.21333-0.08-0.53333-0.08h-4.96q-0.56 0-0.96-0.37334-0.37334-0.4-0.37334-0.96t0.37334-0.96q0.4-0.4 0.96-0.4h4.96q1.6267 0 2.7733 1.1467 1.1733 1.12 1.2267 2.72l0.34667 9.9467q0 0.56-0.42667 0.96-0.40001 0.37334-0.96001 0.37334-0.53333 0-0.93334-0.4-0.37333-0.4-0.37333-0.93334l-1.9733 1.1467q-0.26667 0.18667-0.66667 0.18667h-3.9734q-1.6267 0-2.8-1.1733t-1.1733-2.8267zm2.6934 0q0 0.53334 0.37333 0.93334 0.37334 0.37334 0.90667 0.37334h3.6l2.8534-1.68v-1.1733q0-0.48-0.42667-0.85334-0.4-0.4-0.88001-0.4h-5.1467q-0.50667 0-0.90667 0.4-0.37333 0.37334-0.37333 0.90667zm16.587 2.64v-18.107q0-0.53334 0.37334-0.93334 0.4-0.4 0.96-0.4 0.56001 0 0.96001 0.4t0.4 0.93334v6.5867l2.56-1.6267q1.0133-0.64 2.16-0.64h1.52q1.6267 0 2.7734 1.1467 1.1733 1.12 1.2267 2.72l0.32 9.92q0 0.56-0.4 0.96-0.37333 0.4-0.93334 0.4-0.53333 0-0.93333-0.37334-0.40001-0.4-0.40001-0.93334l-0.34667-9.8934q-0.0533-0.50667-0.42666-0.88-0.34667-0.37334-0.88001-0.37334h-1.8933l-4.3467 2.8v8.2934q0 0.56-0.4 0.96t-0.96001 0.4q-0.56 0-0.96-0.4-0.37334-0.4-0.37334-0.96zm19.28 0v-12.427q0-0.56 0.37333-0.96 0.40001-0.4 0.96001-0.4t0.96 0.4q0.40001 0.4 0.40001 0.96v0.90667l2.56-1.6267q1.0133-0.64 2.16-0.64h1.52q1.6267 0 2.7733 1.1467 1.1733 1.12 1.2267 2.72l0.32 9.92q0 0.56-0.4 0.96-0.37334 0.4-0.93334 0.4-0.53334 0-0.93334-0.37334-0.4-0.4-0.4-0.93334l-0.34667-9.8934q-0.0533-0.50667-0.42667-0.88-0.34667-0.37334-0.88-0.37334h-1.8934l-4.3467 2.8v8.2934q0 0.56-0.40001 0.96-0.4 0.4-0.96 0.4t-0.96001-0.4q-0.37333-0.4-0.37333-0.96z" style="paint-order:markers stroke fill" aria-label="Rheinhessenbahn"/>
<path d="m281.07 403.81-1.1577-19.406 3.3541-0.20011 3.5521 4.4631 2.9696-4.8522 3.3807-0.20169 1.1577 19.406q0.0333 0.55901-0.34211 0.98213-0.37547 0.42311-0.93449 0.45646-0.559 0.0333-0.98212-0.34211-0.3965-0.37707-0.42985-0.93608l-0.93699-15.705-2.3864 3.8824 0.0413 0.69211q0.0333 0.55901-0.34212 0.98212-0.37548 0.42312-0.90786 0.45488-0.55902 0.0333-0.98213-0.34213-0.42311-0.37546-0.45646-0.93447l-0.0413-0.69211-2.8012-3.5194 0.93382 15.652q0.0334 0.55901-0.34211 0.98213-0.37547 0.42311-0.93449 0.45646-0.559 0.0333-0.98212-0.34212-0.3965-0.37706-0.42985-0.93607zm19.089-3.7835-0.0889-1.4907q-0.0985-1.6504 1.0029-2.8915 1.1014-1.2411 2.7252-1.338l5.1376-0.30651q0.63887-0.0381 1.1824 0.11646-0.0111-0.18634-0.0632-0.61066-0.027-0.45253-0.0648-0.63727-0.0127-0.21296-0.0881-0.58246-0.0489-0.37108-0.13824-0.52604-0.091-0.18157-0.2634-0.38499-0.14581-0.20502-0.39015-0.27059-0.21771-0.0672-0.53714-0.0481l-4.9512 0.29539q-0.55901 0.0333-0.98053-0.3155-0.3965-0.37705-0.42985-0.93607-0.0333-0.55901 0.3155-0.98053 0.37547-0.42311 0.93448-0.45646l4.9512-0.29539q1.6238-0.0969 2.8367 0.97947 1.238 1.0481 1.3865 2.6421l0.93843 9.9084q0.0333 0.55901-0.36874 0.98371-0.37707 0.3965-0.93607 0.42985-0.53239 0.0318-0.95551-0.34371-0.39649-0.37706-0.42825-0.90945l-1.9016 1.2622q-0.25508 0.20222-0.65437 0.22604l-3.9663 0.23663q-1.6238 0.0969-2.8649-1.0045-1.2411-1.1014-1.3396-2.7518zm2.6886-0.1604q0.0318 0.53238 0.42825 0.90945 0.39491 0.35043 0.92729 0.31867l3.5936-0.2144 2.7482-1.847-0.0699-1.1713q-0.0286-0.47915-0.47673-0.82641-0.42311-0.37547-0.90227-0.34689l-5.1376 0.30651q-0.50577 0.0302-0.88124 0.4533-0.35043 0.3949-0.31867 0.92729zm18.019 1.5697q-0.0318-0.53238 0.34371-0.9555 0.37547-0.42312 0.93447-0.45647l2.6353-0.15722-0.58126-9.7427-2.6353 0.15723q-0.55901 0.0333-0.98053-0.3155-0.42311-0.37547-0.45646-0.93448-0.0334-0.55901 0.34211-0.98212 0.37547-0.42311 0.93448-0.45646l3.9663-0.23663q0.53239-0.0318 0.9555 0.3437 0.42312 0.37547 0.45647 0.93448l0.66066 11.074 2.6087-0.15564q0.55902-0.0333 0.98213 0.34212 0.42311 0.37548 0.45488 0.90786 0.0333 0.55901-0.34212 0.98213-0.37547 0.42311-0.93448 0.45646l-7.906 0.47167q-0.559 0.0334-0.98211-0.34211-0.42312-0.37548-0.45647-0.93449zm1.557-18.232-0.0667-1.118q-0.0334-0.559 0.3437-0.9555 0.37547-0.42311 0.93449-0.45646l1.331-0.0794q0.53238-0.0318 0.9555 0.34371 0.42153 0.34885 0.45488 0.90786l0.0667 1.118q0.0333 0.559-0.34213 0.98212-0.37546 0.42311-0.90785 0.45487l-1.331 0.0794q-0.55902 0.0333-0.98213-0.34212-0.42311-0.37547-0.45646-0.93447zm16.385 17.161-0.74007-12.405q-0.0333-0.559 0.31551-0.98053 0.37547-0.42311 0.93447-0.45646 0.55901-0.0333 0.98213 0.34212 0.42311 0.37546 0.45646 0.93447l0.054 0.90506 2.4586-1.7762q0.97343-0.69921 2.1181-0.7675l1.5173-0.0905q1.6238-0.0969 2.8367 0.97947 1.238 1.0481 1.3865 2.6421l0.91022 9.8834q0.0334 0.559-0.34212 0.98212-0.34886 0.42153-0.90786 0.45488-0.5324 0.0318-0.95392-0.31709-0.42311-0.37547-0.45487-0.90786l-0.93525-9.8552q-0.0834-0.5026-0.47832-0.85303-0.36829-0.35203-0.90068-0.32027l-1.89 0.11276-4.1722 3.0539 0.49391 8.2786q0.0333 0.55901-0.34212 0.98213-0.37548 0.42311-0.93448 0.45646-0.55901 0.0333-0.98212-0.34211-0.3965-0.37707-0.42985-0.93608zm19.246-1.1482-0.0667-1.118q-0.0365-0.61225 0.34212-0.98213l8.8333-9.5564-7.7995 0.46532q-0.55902 0.0333-0.98054-0.3155-0.39649-0.37705-0.42984-0.93607-0.0334-0.55901 0.31549-0.98053 0.37547-0.42311 0.93449-0.45646l9.929-0.59237q0.55902-0.0333 0.98213 0.34211 0.42311 0.37547 0.45646 0.93448l0.0667 1.118q0.0334 0.55901-0.36715 1.0103l-8.8082 9.5282 8.4118-0.50185q0.55901-0.0333 0.98212 0.34212 0.42312 0.37548 0.45488 0.90786 0.0333 0.55901-0.34212 0.98213-0.37547 0.42311-0.93448 0.45646l-10.568 0.63049q-0.55901 0.0333-0.98212-0.34212-0.3965-0.37706-0.42985-0.93607zm19.039-4.6087-0.32715-5.4836q-0.0556-0.93169 0.32267-1.7557 0.37827-0.824 0.70527-1.1641 0.327-0.34008 1.1109-1.0814 1.0342-1.0234 2.5249-1.1124l3.3274-0.19851q0.26619-0.0159 0.50736-4e-3 0.26778 0.0108 0.53874 0.0747 0.27095 0.064 0.43385 0.10769 0.1629 0.0437 0.43861 0.18755 0.27573 0.14383 0.35876 0.1923 0.10966 0.0469 0.39015 0.27059 0.27889 0.19707 0.33373 0.22052 0.0548 0.0235 0.36352 0.27216l0.30869 0.24873q1.4839 1.1403 1.5919 2.9504l0.19693 3.3008q0.0333 0.55901-0.34212 0.98213-0.37547 0.42311-0.93447 0.45646l-9.2104 0.54949 0.0492 0.82521q0.0191 0.31943 0.19625 0.60271 0.17718 0.28329 0.34643 0.43348 0.19586 0.1486 0.53118 0.39574 0.33373 0.22051 0.44497 0.29402 0.41835 0.29561 0.87088 0.26861l6.9477-0.4145q0.559-0.0334 0.98212 0.34212 0.42311 0.37547 0.45487 0.90786 0.0333 0.559-0.34212 0.98212-0.37547 0.42312-0.93447 0.45647l-6.9477 0.4145q-0.42591 0.0254-0.82997-0.0306-0.37903-0.0842-0.64998-0.14822-0.27255-0.0906-0.65952-0.30794-0.36034-0.21893-0.52641-0.31588-0.13945-0.0985-0.53118-0.39573-0.36511-0.2988-0.47635-0.3723-1.4588-1.1685-1.5653-2.952zm2.4789-3.6742 7.8794-0.47008-0.11752-1.9698q-0.0413-0.69211-0.88276-1.3632t-1.5336-0.62979l-3.3274 0.19851q-0.37266 0.0222-0.65595 0.19942-0.28328 0.17719-0.65876 0.60031-0.37547 0.42311-0.42712 0.45291-0.4303 0.39967-0.39377 1.0119zm16.973 5.9865-0.74007-12.405q-0.0333-0.55901 0.3155-0.98053 0.37546-0.42312 0.93448-0.45647 0.55901-0.0333 0.98212 0.34212 0.42311 0.37547 0.45646 0.93447l0.0937 1.5706 3.0057-2.9042q0.28011-0.23042 0.75926-0.259l2.6353-0.15723q1.6238-0.0969 2.8665 1.0311 1.2678 1.0998 1.3646 2.7236l0.0445 0.74535q0.0333 0.559-0.34212 0.98211-0.37705 0.3965-0.93606 0.42985-0.55901 0.0334-0.98054-0.3155-0.39649-0.37706-0.42984-0.93606l-0.0445-0.74535q-0.0318-0.53239-0.45329-0.88124-0.39649-0.37706-0.92888-0.3453l-2.1562 0.12864-4.1917 4.0702 0.43356 7.2671q0.0334 0.559-0.34212 0.98213-0.37547 0.42311-0.93447 0.45646-0.55902 0.0333-0.98213-0.34212-0.39649-0.37707-0.42984-0.93607zm38.358-4.5325q-0.0333-0.559 0.31551-0.98053 0.37547-0.42312 0.93447-0.45647 0.55901-0.0333 0.98213 0.34213 0.42311 0.37547 0.45646 0.93447 0.0222 0.37268 0.30431 0.62299 0.28207 0.25031 0.65475 0.22808l6.6282-0.39545q0.34606-0.0206 0.32541-0.3667l-10.721-12.237q-0.66307-0.8153-0.72342-1.8268l-5e-3 -0.0799q-0.0715-1.1979 0.75458-2.1287 0.85265-0.93243 2.0771-1.0055l6.6282-0.39544q1.4641-0.0874 2.5924 0.91391 1.1549 0.99966 1.2423 2.4637 0.0334 0.55901-0.34212 0.98212-0.37548 0.42312-0.93448 0.45647-0.55901 0.0333-0.98212-0.34212-0.3965-0.37706-0.42985-0.93607-0.0206-0.34606-0.32934-0.59478-0.28367-0.27693-0.65634-0.2547l-6.6282 0.39544q-0.31943 0.0191-0.30355 0.28526l5e-3 0.0799 6e-3 0.10648 10.662 12.133q0.71313 0.75888 0.77665 1.8236 0.0214 1.2543-0.80304 2.2118-0.79942 0.92927-2.0505 1.0039l-6.6282 0.39545q-1.4641 0.0873-2.5924-0.91391-1.1283-1.0013-1.2156-2.4653zm19.069-10.381q-0.3965-0.37705-0.42985-0.93607-0.0333-0.55901 0.3155-0.98053 0.37547-0.42311 0.93448-0.45646l1.3044-0.0778-0.18899-3.1677q-0.0333-0.55901 0.3155-0.98054 0.37547-0.42311 0.93448-0.45646 0.55901-0.0333 0.98213 0.34212 0.42311 0.37546 0.45646 0.93448l0.18899 3.1677 5.244-0.31286q0.55901-0.0333 0.95551 0.3437 0.42311 0.37547 0.45646 0.93448 0.0333 0.55901-0.34212 0.98212-0.35044 0.39491-0.90945 0.42826l-5.244 0.31286 0.50343 8.4384q0.0318 0.53239 0.42827 0.90945 0.3949 0.35044 0.92729 0.31867l2.662-0.15881q0.53238-0.0318 0.83118-0.39687 0.32381-0.39332 0.40647-0.79896 0.10769-0.43385 0.40648-0.79897 0.32382-0.39332 0.8562-0.42508 0.55901-0.0333 0.98213 0.34213 0.42311 0.37546 0.45646 0.93447l0.0127 0.21296q-0.18362 1.4001-1.2679 2.4799-1.0593 1.0516-2.5233 1.139l-2.662 0.15881q-1.6238 0.0969-2.8649-1.0045-1.2427-1.128-1.3396-2.7518l-0.50343-8.4384-1.3044 0.0778q-0.55901 0.0333-0.98053-0.3155zm19.556 10.32-0.74006-12.405q-0.0333-0.559 0.31549-0.98053 0.37547-0.42311 0.93449-0.45646 0.559-0.0333 0.98211 0.34212 0.42312 0.37547 0.45647 0.93447l0.0937 1.5706 3.0057-2.9042q0.28012-0.23042 0.75927-0.25901l2.6353-0.15722q1.6238-0.0969 2.8665 1.0311 1.2677 1.0998 1.3646 2.7236l0.0445 0.74535q0.0333 0.559-0.34212 0.98211-0.37706 0.3965-0.93606 0.42985-0.55902 0.0334-0.98054-0.3155-0.39649-0.37706-0.42984-0.93606l-0.0445-0.74535q-0.0318-0.53239-0.4533-0.88124-0.39649-0.37706-0.92888-0.3453l-2.1562 0.12864-4.1917 4.0702 0.43356 7.2671q0.0333 0.559-0.34211 0.98212-0.37547 0.42312-0.93448 0.45647-0.55901 0.0334-0.98213-0.34212-0.39649-0.37707-0.42984-0.93607zm19.089-3.7835-0.0889-1.4907q-0.0985-1.6504 1.0029-2.8915 1.1014-1.2411 2.7252-1.338l5.1376-0.30651q0.63887-0.0381 1.1824 0.11646-0.0111-0.18634-0.0632-0.61066-0.027-0.45254-0.0648-0.63728-0.0127-0.21296-0.0881-0.58245-0.0489-0.37109-0.13823-0.52604-0.091-0.18158-0.2634-0.385-0.14581-0.20502-0.39015-0.27058-0.21771-0.0672-0.53715-0.0481l-4.9512 0.29539q-0.55901 0.0334-0.98053-0.31549-0.3965-0.37706-0.42985-0.93607-0.0333-0.55901 0.3155-0.98053 0.37547-0.42312 0.93448-0.45647l4.9512-0.29539q1.6238-0.0969 2.8367 0.97947 1.238 1.0481 1.3865 2.6421l0.93843 9.9084q0.0333 0.55901-0.36874 0.98371-0.37706 0.39649-0.93606 0.42984-0.5324 0.0318-0.95551-0.3437-0.39649-0.37707-0.42825-0.90945l-1.9016 1.2622q-0.25507 0.20222-0.65437 0.22604l-3.9663 0.23663q-1.6238 0.0969-2.8649-1.0045-1.2411-1.1014-1.3396-2.7518zm2.6886-0.1604q0.0318 0.53238 0.42826 0.90945 0.3949 0.35043 0.92729 0.31867l3.5936-0.2144 2.7482-1.847-0.0699-1.1712q-0.0286-0.47915-0.47673-0.82641-0.42313-0.37548-0.90227-0.34689l-5.1376 0.30651q-0.50577 0.0302-0.88124 0.45329-0.35044 0.3949-0.31868 0.9273zm26.703-14.069q0.054 0.90506-0.27739 1.6194-0.33296 0.68772-0.8602 1.2535-0.52885 0.53912-1.0624 0.99839-0.5336 0.45925-0.88087 0.9074-0.34884 0.42152-0.32025 0.90068 0.0206 0.34605 0.19783 0.62933 0.20379 0.2817 0.73339 0.65082 0.528 0.34249 1.5526 0.94922 1.4946 0.87255 2.3802 1.8349 0.88397 0.93568 0.97766 2.5062 0.135 2.2627-1.1873 3.3834-1.2957 1.1192-3.5051 1.251-1.2511 0.0746-2.2237-0.10776-0.97259-0.18241-1.6901-0.56703l-0.12546-2.1029q0.71752 0.38462 1.7497 0.67033 1.0322 0.2857 2.097 0.22217 1.4641-0.0874 2.0664-0.7377 0.60234-0.65037 0.53881-1.7152-0.0572-0.9583-0.65588-1.5904-0.57209-0.63372-2.0369-1.4546-1.7421-0.99135-2.4004-1.7268-0.65989-0.76206-0.72341-1.8268-0.0492-0.8252 0.26188-1.4315 0.33773-0.60786 0.84471-1.0655 0.53201-0.48588 1.039-0.94356 0.53359-0.45926 0.84947-0.98567 0.3425-0.52801 0.29962-1.2467-0.0667-1.118-1.0552-1.5666-0.96185-0.45019-2.4525-0.36125-0.93169 0.0556-1.741 0.37101-0.78429 0.28722-1.2535 0.92964-0.44262 0.64084-0.37433 1.7855l0.92747 15.546-2.3425 0.13976-0.92746-15.546q-0.10641-1.7835 0.60361-2.8677 0.70844-1.1108 2.0124-1.6428 1.3024-0.55856 2.9794-0.65861 2.5821-0.15405 4.2114 0.73717 1.6559 0.88963 1.7734 2.8595zm6.602 11.254-0.32716-5.4836q-0.0556-0.93168 0.32269-1.7557 0.37827-0.824 0.70526-1.1641t1.1109-1.0814q1.0342-1.0234 2.5249-1.1123l3.3274-0.19852q0.2662-0.0159 0.50736-4e-3 0.26779 0.0108 0.53875 0.0747 0.27096 0.064 0.43385 0.10768 0.16289 0.0437 0.43862 0.18755 0.27572 0.14384 0.35875 0.19231 0.10966 0.0469 0.39015 0.27058 0.2789 0.19707 0.33372 0.22052 0.0548 0.0235 0.36353 0.27216l0.30869 0.24873q1.4839 1.1403 1.5919 2.9504l0.19692 3.3008q0.0334 0.55901-0.34212 0.98213-0.37547 0.42311-0.93448 0.45647l-9.2103 0.54949 0.0492 0.8252q0.0191 0.31943 0.19624 0.60271 0.17719 0.28329 0.34643 0.43348 0.19587 0.1486 0.53118 0.39574 0.33373 0.22052 0.44497 0.29402 0.41835 0.29561 0.87088 0.26861l6.9477-0.4145q0.55901-0.0333 0.98212 0.34212 0.42312 0.37548 0.45489 0.90786 0.0334 0.55901-0.34213 0.98213-0.37547 0.42311-0.93448 0.45646l-6.9477 0.4145q-0.4259 0.0254-0.82997-0.0306-0.37902-0.0842-0.64998-0.14823-0.27255-0.0906-0.65951-0.30794-0.36035-0.21893-0.52642-0.31588-0.13945-0.0985-0.53118-0.39573-0.36511-0.29879-0.47635-0.3723-1.4588-1.1685-1.5653-2.952zm2.4789-3.6742 7.8794-0.47009-0.11752-1.9698q-0.0413-0.6921-0.88276-1.3632-0.84146-0.67109-1.5336-0.6298l-3.3274 0.19852q-0.37267 0.0222-0.65596 0.19942-0.28328 0.17718-0.65875 0.6003-0.37546 0.42311-0.42712 0.45291-0.43029 0.39967-0.39377 1.0119zm39.773-1.8653-0.30492-5.111q-0.10958-1.8367 0.94612-3.3957l2.8762-4.1787q0.39574-0.53117 1.0346-0.56929 0.559-0.0333 0.95549 0.34371 0.42312 0.37547 0.45489 0.90786 0.027 0.45253-0.21538 0.8677l-2.8778 4.1521q-0.53957 0.80689-0.48558 1.712l0.30492 5.1109q0.054 0.90507 0.68568 1.6421l3.3511 3.7805q0.29001 0.38341 0.31542 0.80932 0.0334 0.55901-0.34212 0.98213-0.34885 0.42152-0.90785 0.45487-0.63888 0.0381-1.095-0.44224l-3.3527-3.8071q-1.2336-1.4224-1.3432-3.2591zm15.773 6.913-1.1593-19.432q-0.0318-0.53239 0.3171-0.95392 0.37546-0.42311 0.93447-0.45646 0.55901-0.0334 0.98212 0.34212 0.42312 0.37546 0.45488 0.90786l0.99893 16.744 9.2103-0.5495q0.559-0.0334 0.98212 0.34212 0.42312 0.37548 0.45488 0.90786 0.0333 0.55901-0.34213 0.98213-0.37547 0.42311-0.93447 0.45646zm19.48-7.9743-0.75436-12.644q-0.0318-0.53239 0.34371-0.95551 0.37547-0.42311 0.93448-0.45646 0.559-0.0333 0.9555 0.34371 0.42311 0.37547 0.45488 0.90786l0.59396 9.9557 5.244-0.31286-0.45897-7.693q-0.0333-0.55901 0.34371-0.9555 0.37547-0.42312 0.93448-0.45647 0.53239-0.0318 0.9555 0.34371 0.42153 0.34885 0.45488 0.90785l0.45897 7.693q0.55901-0.0334 0.9555 0.3437 0.42312 0.37547 0.45647 0.93447 0.0334 0.55902-0.34213 0.98213-0.35043 0.3949-0.90944 0.42825l0.32398 5.4304q0.0334 0.559-0.34213 0.98213-0.37547 0.42311-0.90785 0.45487-0.55902 0.0333-0.98213-0.34212-0.42311-0.37547-0.45646-0.93448l-0.32398-5.4304zm18.931 4.3203q-0.0318-0.53238 0.31709-0.95392 0.37547-0.42311 0.93448-0.45646l3.9397-0.23504-0.91794-15.386-3.9397 0.23504q-0.55901 0.0334-0.98212-0.34212-0.3965-0.37705-0.42985-0.93606-0.0318-0.53239 0.31709-0.95392 0.37547-0.42311 0.93448-0.45646l6.6282-0.39544 1.0783 18.075 2.6087-0.15564-0.32398-5.4304q-0.0333-0.55901 0.3155-0.98053 0.37548-0.42311 0.93448-0.45647 0.55901-0.0333 0.98212 0.34212 0.42312 0.37547 0.45647 0.93448l0.40339 6.7613q0.0333 0.55901-0.34213 0.98213-0.37547 0.42311-0.93447 0.45646l-10.568 0.63049q-0.55901 0.0333-0.98212-0.34212-0.3965-0.37706-0.42985-0.93607zm18.572-12.435-0.40497-6.788q-0.0318-0.53239 0.31709-0.95391 0.37547-0.42312 0.93448-0.45647l10.568-0.63048q0.559-0.0334 0.98211 0.34212 0.42313 0.37546 0.45489 0.90786l1.0783 18.075q0.0334 0.559-0.34213 0.98213-0.37547 0.42311-0.93447 0.45646l-1.331 0.0794q-0.559 0.0333-0.98212-0.34212-0.3965-0.37707-0.42985-0.93607-0.0318-0.53239 0.3171-0.95392 0.37547-0.42311 0.93447-0.45646l-0.51296-8.5981-9.237 0.55108q-0.55901 0.0333-0.98212-0.34212-0.3965-0.37706-0.42985-0.93607zm2.5825-1.4898 7.906-0.47168-0.24458-4.0994-7.906 0.47168zm19.972 11.471q-0.0254-0.42592 0.21697-0.84109l2.8778-4.1521q0.53957-0.8069 0.48557-1.712l-0.30492-5.111q-0.054-0.90506-0.68568-1.6421l-3.3511-3.7805q-0.29002-0.38341-0.31702-0.83594-0.0318-0.53239 0.3171-0.95391 0.37546-0.42312 0.93447-0.45647 0.63887-0.0381 1.095 0.44224l3.3527 3.8071q1.2336 1.4224 1.3432 3.2591l0.30492 5.111q0.10958 1.8367-0.94612 3.3957l-2.8762 4.1787q-0.39574 0.53118-1.0346 0.5693-0.55901 0.0334-0.98212-0.34212-0.3965-0.37707-0.42985-0.93607z" style="paint-order:markers stroke fill" aria-label="Mainzer Strae (L419)"/>
<path d="m450.09 241.21-0.33854-4.0927q-0.0462-0.55809 0.3195-0.9897 0.36567-0.43162 0.92376-0.47778 0.5581-0.0462 0.96314 0.3217 0.43161 0.36566 0.47777 0.92376l0.33854 4.0927q0.0462 0.55809 0.47779 0.92377 0.42941 0.33908 0.98751 0.29292l2.5247-0.20884q0.5581-0.0462 0.92376-0.47778 0.36567-0.43161 0.3217-0.96313l-1.2728-15.388q-0.044-0.53152 0.29513-0.96093 0.36566-0.43163 0.92376-0.47779 0.5581-0.0462 0.98972 0.31951 0.43161 0.36566 0.47557 0.89718l1.2728 15.388q0.1363 1.6477-0.96071 2.9426-1.0992 1.2683-2.7469 1.4046l-2.5247 0.20884q-1.6477 0.13629-2.9404-0.93413-1.2948-1.097-1.4311-2.7447zm17.108-11.208q-0.0462-0.5581 0.29292-0.98751 0.36568-0.43161 0.92377-0.47778 0.53151-0.044 0.96314 0.3217 0.42941 0.33909 0.47338 0.87061l1.161 9.8311q0.0971 0.52713 0.47338 0.87061 0.40064 0.31471 0.93216 0.27075l1.8869-0.15608 4.1298-3.1244-0.68586-8.2917q-0.0462-0.5581 0.29292-0.98751 0.36567-0.43161 0.92377-0.47778 0.55809-0.0462 0.9897 0.3195 0.43162 0.36567 0.47778 0.92376l1.0244 12.384q0.0462 0.5581-0.3195 0.98972-0.36566 0.43161-0.92376 0.47778-0.55809 0.0462-0.98971-0.3195-0.40504-0.36787-0.4512-0.92597l-0.0769-0.93016-2.4416 1.861q-0.95713 0.72136-2.0999 0.81589l-1.5148 0.1253q-1.5946 0.1319-2.8562-0.88757-1.2639-1.046-1.4467-2.6096zm20.184 10.452 8.2154-17.136-8.212 0.67928q-0.5581 0.0462-0.98971-0.31951-0.40504-0.36786-0.45121-0.92596-0.044-0.53152 0.29513-0.96093 0.36567-0.43162 0.92376-0.47779l11.906-0.98483 0.14069 1.7009-8.2154 17.136 8.212-0.67927q0.5581-0.0462 0.98971 0.3195 0.43162 0.36568 0.47558 0.89719 0.0462 0.5581-0.3195 0.98972-0.36566 0.43161-0.92377 0.47778l-11.879 0.98263zm38.596-1.48-1.7147-20.729 7.8665-0.65069q2.1792-0.18026 3.9057 1.2824 1.7265 1.4627 1.9067 3.6419l0.0813 0.98331q0.19564 2.3653-1.5284 4.1669 1.9966 1.4938 2.1923 3.8591l0.0813 0.98331q0.18026 2.1792-1.2824 3.9057t-3.6419 1.9067zm2.4622-2.9062 5.1823-0.42867q1.0896-0.0901 1.821-0.95336 0.72913-0.8898 0.64119-1.9528l-0.0813-0.98331q-0.0901-1.0896-0.95336-1.821-0.86323-0.73133-1.9528-0.6412l-5.1823 0.42867zm-0.74742-9.0358 5.1823-0.42867q1.0896-0.0901 1.821-0.95336 0.73132-0.86323 0.64339-1.9263l-0.0813-0.98331q-0.0879-1.063-0.95116-1.7944-0.86543-0.75791-1.955-0.66778l-5.1823 0.42867zm18.69 8.8896q-0.044-0.53152 0.3217-0.96314 0.36566-0.43161 0.92376-0.47778l2.631-0.21763-0.80457-9.7268-2.631 0.21763q-0.55809 0.0462-0.98751-0.29292-0.43161-0.36566-0.47777-0.92377-0.0462-0.55809 0.3195-0.9897 0.36566-0.43162 0.92375-0.47778l3.9598-0.32755q0.53152-0.044 0.96314 0.3217 0.43161 0.36567 0.47778 0.92376l0.91448 11.056 2.6044-0.21543q0.5581-0.0462 0.98972 0.3195 0.43161 0.36568 0.47557 0.89719 0.0462 0.55809-0.3195 0.98972-0.36566 0.43161-0.92376 0.47777l-7.8931 0.6529q-0.55809 0.0462-0.9897-0.3195-0.43162-0.36568-0.47778-0.92377zm1.1384-18.263-0.0923-1.1162q-0.0462-0.5581 0.3217-0.96314 0.36567-0.43161 0.92376-0.47778l1.3288-0.10991q0.53151-0.044 0.96313 0.3217 0.42942 0.33909 0.47558 0.89718l0.0923 1.1162q0.0462 0.55811-0.3195 0.98972-0.36567 0.43161-0.89719 0.47558l-1.3288 0.10991q-0.5581 0.0462-0.98972-0.3195-0.43161-0.36566-0.47778-0.92377zm16.774 16.781-1.0244-12.384q-0.0462-0.5581 0.29292-0.98751 0.36567-0.43162 0.92377-0.47778 0.5581-0.0462 0.98971 0.3195 0.43161 0.36567 0.47777 0.92376l0.0747 0.90358 2.4172-1.8322q0.95713-0.72135 2.0999-0.81588l1.5148-0.1253q1.6212-0.1341 2.8584 0.91414 1.2617 1.0195 1.4467 2.6096l1.1367 9.8599q0.0462 0.5581-0.3195 0.98972-0.33909 0.42941-0.89719 0.47558-0.53152 0.044-0.96093-0.29513-0.43163-0.36567-0.47559-0.89719l-1.161-9.8311q-0.0949-0.50055-0.49776-0.84183-0.37626-0.34349-0.90779-0.29953l-1.8869 0.15608-4.1011 3.1488 0.68367 8.2651q0.0462 0.5581-0.3195 0.98972-0.36567 0.43161-0.92376 0.47778-0.5581 0.0462-0.98972-0.3195-0.40503-0.36788-0.4512-0.92597zm18.834-6.187-0.35832-4.3319q-0.0242-0.29235-0.0217-0.58688 0.0289-0.29673 0.038-0.51154 0.0355-0.21701 0.14646-0.49375 0.13747-0.27896 0.17963-0.41624 0.0421-0.13727 0.23499-0.39404 0.19062-0.28335 0.23718-0.36747 0.0465-0.0841 0.29253-0.34529 0.27255-0.26337 0.29693-0.29215 0.0487-0.0575 0.32131-0.3209 0.29693-0.29215 0.32131-0.32092 1.0105-1.0469 2.4987-1.17l1.9932-0.16487q0.42521-0.0352 0.83265 0.0382 0.40523 0.0467 0.65321 0.13327 0.27235 0.0577 0.69298 0.29054 0.42062 0.23278 0.53352 0.30372 0.1129 0.0709 0.54232 0.41002 0.45599 0.33689 0.51134 0.35908l-0.0396-0.47838q-0.0462-0.55809 0.29292-0.98751 0.36567-0.43161 0.92377-0.47777 0.55809-0.0462 0.9897 0.3195 0.43163 0.36566 0.47779 0.92375l1.2047 14.564q0.0594 0.71755-0.0805 1.291-0.11329 0.57128-0.5477 1.1424-0.43221 0.59768-0.63162 0.77472-0.17065 0.20142-0.81327 0.84324-0.95732 1.0425-2.4987 1.17l-5.6076 0.46384q-0.5581 0.0462-0.98971-0.3195-0.42942-0.3391-0.47559-0.89719-0.0462-0.5581 0.31951-0.98972 0.36567-0.43161 0.92376-0.47778l5.6076-0.46384q0.37206-0.0308 0.65121-0.21441 0.27914-0.18363 0.64481-0.61525 0.36566-0.43161 0.41662-0.46259 0.44979-0.38506 0.39703-1.0229l-0.30996-3.7472q-0.56509 0.60866-0.93735 0.96054-0.37225 0.3519-1.0634 0.73016-0.69338 0.35169-1.4641 0.41544l-1.9932 0.16487q-0.39865 0.033-0.83047-0.0116-0.40743-0.0733-0.65321-0.13328-0.24577-0.0599-0.66639-0.29272-0.42282-0.25937-0.53353-0.30372-0.0863-0.0731-0.54451-0.4366l-0.48258-0.3347q-1.4809-1.0816-1.6326-2.9154zm2.6576-0.21983q0.0594 0.71755 0.88942 1.3714 0.85663 0.65161 1.5742 0.59226l1.9932-0.16487q0.53152-0.044 0.82405-0.38927l2.1229-2.1557q0.44759-0.41163 0.39703-1.0229l-0.17147-2.0729q-0.0462-0.55809-0.5597-0.94374l-2.4482-1.7776q-0.34529-0.29253-0.8768-0.24857l-1.9932 0.16487q-0.39865 0.033-0.70217 0.24539-0.27694 0.21022-0.56947 0.55551-0.29254 0.34529-0.44321 0.46479-0.43879 0.51793-0.39483 1.0495zm16.651-0.22676-0.45284-5.4747q-0.0769-0.93016 0.28233-1.7626 0.35926-0.83245 0.67838-1.1799 0.31911-0.34749 1.0858-1.1066 1.0105-1.0469 2.4987-1.17l3.322-0.27479q0.26575-0.022 0.50714-0.0152 0.26796 5e-3 0.54031 0.0624 0.27236 0.0577 0.43621 0.0977 0.16385 0.0399 0.44281 0.17744 0.27895 0.13747 0.36307 0.18403 0.11069 0.0443 0.39624 0.26156 0.28335 0.19062 0.3387 0.21281 0.0553 0.0222 0.36967 0.26375l0.31433 0.24158q1.5096 1.106 1.6591 2.9132l0.27259 3.2954q0.0462 0.55809-0.31951 0.98971-0.36567 0.43162-0.92376 0.47778l-9.1953 0.76061 0.0681 0.82386q0.0264 0.31891 0.21002 0.59805 0.18363 0.27915 0.35628 0.42542 0.19922 0.14407 0.54012 0.38345 0.33869 0.2128 0.45159 0.28374 0.42502 0.28593 0.87682 0.24856l6.9363-0.57375q0.55809-0.0462 0.98971 0.3195 0.43162 0.36567 0.47559 0.89719 0.0462 0.55809-0.31951 0.98972-0.36567 0.43161-0.92376 0.47777l-6.9363 0.57376q-0.42522 0.0352-0.83047-0.0116-0.38085-0.0755-0.6532-0.13328-0.27456-0.0843-0.6664-0.29273-0.36528-0.21061-0.53353-0.30372-0.14167-0.0953-0.54012-0.38345-0.37187-0.29034-0.48477-0.36127-1.4853-1.1348-1.6326-2.9154zm2.394-3.7301 7.8665-0.65069-0.16268-1.9666q-0.0571-0.69098-0.91378-1.3426-0.85664-0.65161-1.5476-0.59445l-3.322 0.27478q-0.37207 0.0308-0.65121 0.21441-0.27915 0.18364-0.64482 0.61526-0.36566 0.43162-0.41662 0.46259-0.42101 0.40943-0.37045 1.0207zm17.106 5.5956-1.0244-12.384q-0.0462-0.55809 0.29293-0.98751 0.36566-0.43161 0.92376-0.47778 0.55809-0.0462 0.98971 0.3195 0.43162 0.36567 0.47778 0.92376l0.0747 0.90359 2.4172-1.8322q0.95714-0.72136 2.0999-0.81589l1.5148-0.1253q1.6211-0.13409 2.8584 0.91415 1.2617 1.0195 1.4467 2.6096l1.1367 9.8599q0.0462 0.5581-0.3195 0.98972-0.33909 0.42942-0.89719 0.47558-0.53152 0.044-0.96094-0.29513-0.43161-0.36566-0.47558-0.89719l-1.161-9.8311q-0.0949-0.50055-0.49776-0.84183-0.37627-0.34349-0.90778-0.29953l-1.8869 0.15608-4.1011 3.1488 0.68366 8.2652q0.0462 0.55809-0.3195 0.98971-0.36567 0.43162-0.92377 0.47778-0.55809 0.0462-0.9897-0.3195-0.40505-0.36787-0.45121-0.92597z" style="paint-order:markers stroke fill" aria-label="JuZ Bingen"/>
<path d="m513.4 280.23q-0.044-0.53151 0.29512-0.96093 0.36567-0.43162 0.92377-0.47778l3.9332-0.32535-1.2706-15.361-3.9332 0.32535q-0.55811 0.0462-0.98972-0.3195-0.40503-0.36786-0.4512-0.92596-0.044-0.53152 0.29512-0.96094 0.36567-0.43161 0.92377-0.47778l6.6174-0.54737 1.4926 18.045 2.6045-0.21543-0.44846-5.4215q-0.0462-0.55811 0.29293-0.98752 0.36566-0.43162 0.92376-0.47778 0.5581-0.0462 0.98971 0.3195 0.43161 0.36567 0.47778 0.92377l0.55836 6.7503q0.0462 0.5581-0.3195 0.98971-0.36566 0.43161-0.92376 0.47778l-10.551 0.87272q-0.55811 0.0462-0.98972-0.3195-0.40503-0.36786-0.4512-0.92597zm19.105-2.9182-1.2706-15.361q-0.0901-1.0896 0.6412-1.9528 0.73133-0.86323 1.821-0.95336l7.8665-0.65069q1.063-0.0879 1.9263 0.64339 0.88981 0.72913 0.97994 1.8188l1.2706 15.361q0.0901 1.0896-0.66778 1.955-0.73134 0.86323-1.7944 0.95116l-7.8665 0.65069q-1.0896 0.0901-1.9528-0.64119-0.86323-0.73134-0.95336-1.821zm2.6842-0.22203 7.8665-0.65069-1.2706-15.361-7.8665 0.65069zm16.64-0.0385q-0.044-0.53152 0.29512-0.96093 0.36566-0.43162 0.92377-0.47779l9.2219-0.7628-0.41328-4.9963q-0.044-0.53152-0.50215-0.89498-0.43382-0.39225-0.96534-0.34828l-5.2355 0.43306q-0.55809 0.0462-0.98751-0.29293-0.40504-0.36786-0.45121-0.92595-0.0462-0.5581 0.29293-0.98752 0.36567-0.43162 0.92376-0.47778l5.2355-0.43306q0.5581-0.0462 0.92376-0.47778 0.36568-0.43161 0.32171-0.96314l-0.41328-4.9963-9.2219 0.7628q-0.55811 0.0462-0.98972-0.3195-0.40503-0.36786-0.4512-0.92595-0.044-0.53153 0.29512-0.96094 0.36566-0.43162 0.92377-0.47778l9.2219-0.76281q1.063-0.0879 1.9263 0.6434 0.8898 0.72913 0.97993 1.8188l0.41328 4.9963q0.1275 1.5414-0.84101 2.7721 1.1576 1.0548 1.2851 2.5962l0.41327 4.9963q0.0901 1.0896-0.66777 1.955-0.73133 0.86323-1.7944 0.95116l-9.2219 0.7628q-0.5581 0.0462-0.98971-0.31949-0.40504-0.36787-0.4512-0.92597zm18.997-4.2204-0.12311-1.4883q-0.13629-1.6477 0.93633-2.9138t2.6938-1.4002l5.1292-0.42427q0.63782-0.0528 1.1847 0.0893-0.0154-0.18603-0.0772-0.60905-0.0374-0.45179-0.0794-0.63562-0.0176-0.21261-0.10149-0.58028-0.0574-0.36987-0.15027-0.52273-0.0951-0.17944-0.27216-0.37885-0.15046-0.20162-0.39624-0.26157-0.21921-0.0621-0.53812-0.0358l-4.9431 0.40888q-0.55811 0.0462-0.98752-0.29292-0.40504-0.36786-0.4512-0.92597-0.0462-0.55809 0.29292-0.9875 0.36567-0.43162 0.92377-0.47778l4.9431-0.40888q1.6211-0.1341 2.8584 0.91414 1.2617 1.0195 1.4467 2.6096l1.1655 9.8843q0.0462 0.55809-0.34608 0.9919-0.36787 0.40505-0.92596 0.45121-0.53152 0.044-0.96314-0.3217-0.40504-0.36786-0.44901-0.89938l-1.8721 1.3054q-0.25038 0.20802-0.64902 0.24099l-3.9598 0.32754q-1.6212 0.1341-2.8872-0.93852t-1.4024-2.7203zm2.6842-0.22203q0.044 0.53153 0.44901 0.89939 0.40283 0.34128 0.93436 0.29732l3.5878-0.29677 2.7051-1.9095-0.0967-1.1693q-0.0396-0.47837-0.49556-0.81526-0.43162-0.36566-0.90998-0.32609l-5.1292 0.42427q-0.50494 0.0418-0.87061 0.47338-0.34129 0.40283-0.29732 0.93436z" style="paint-order:markers stroke fill" aria-label="103a"/>
<path d="m431.03 328.94 3.8715-18.863q0.0977-0.43621 0.42122-0.73054 0.3235-0.29434 0.77529-0.33171 0.45179-0.0374 0.84584 0.19761 0.39406 0.23498 0.53552 0.6514l6.8918 17.973q0.0462 0.5581-0.34607 0.99191-0.36567 0.43162-0.92377 0.47778-0.45179 0.0374-0.81926-0.19981-0.36747-0.23718-0.53552-0.6514l-1.331-3.4755-5.9265 0.49022-0.74189 3.6469q-0.0977 0.43621-0.44779 0.73274-0.32351 0.29434-0.7753 0.33171-0.5581 0.0462-1.0163-0.3173-0.43162-0.36566-0.47778-0.92377zm4.0343-6.2204 4.3319-0.35832-2.7904-7.2079zm16.562 4.5168q-0.044-0.53152 0.3217-0.96313 0.36566-0.43162 0.92376-0.47779l2.6044-0.21543-1.2706-15.361-2.6044 0.21543q-0.5581 0.0462-0.98971-0.3195-0.43162-0.36566-0.47778-0.92375-0.044-0.53153 0.3217-0.96314 0.36566-0.43161 0.92377-0.47778l3.9598-0.32754q0.53153-0.044 0.96314 0.32169 0.43161 0.36567 0.47558 0.89719l1.3827 16.716 2.6045-0.21543q0.55809-0.0462 0.9897 0.31951 0.43162 0.36567 0.47558 0.89718 0.0462 0.5581-0.3195 0.98972-0.36566 0.43161-0.92376 0.47777l-7.8931 0.6529q-0.5581 0.0462-0.98972-0.3195-0.43161-0.36567-0.47777-0.92377zm17.339-12.94q-0.40505-0.36786-0.45121-0.92595-0.0462-0.55811 0.29293-0.98752 0.36567-0.43161 0.92376-0.47778l1.3022-0.10772-0.26159-3.1625q-0.0462-0.5581 0.29292-0.98751 0.36566-0.43163 0.92376-0.47779 0.5581-0.0462 0.98971 0.31951 0.43161 0.36567 0.47778 0.92376l0.26159 3.1626 5.2355-0.43306q0.5581-0.0462 0.96314 0.32169 0.43161 0.36567 0.47778 0.92377 0.0462 0.5581-0.3195 0.98971-0.34129 0.40284-0.89939 0.44901l-5.2355 0.43306 0.69686 8.4246q0.044 0.53152 0.44901 0.89939 0.40283 0.34128 0.93436 0.29731l2.6576-0.21983q0.53152-0.044 0.82186-0.41582 0.3147-0.40065 0.38804-0.80808 0.0977-0.43621 0.38804-0.80808 0.31472-0.40064 0.84623-0.4446 0.5581-0.0462 0.98972 0.3195 0.43161 0.36566 0.47778 0.92376l0.0176 0.21261q-0.15145 1.4039-1.2107 2.5084-1.0349 1.0756-2.4965 1.1966l-2.6576 0.21983q-1.6212 0.13409-2.8872-0.93853-1.2683-1.0992-1.4024-2.7203l-0.69686-8.4246-1.3022 0.10771q-0.5581 0.0462-0.98751-0.29293zm19.502 6.4142-0.45284-5.4747q-0.0769-0.93017 0.28233-1.7626 0.35926-0.83246 0.67836-1.18 0.31912-0.34748 1.0858-1.1066 1.0105-1.0469 2.4987-1.17l3.322-0.27478q0.26576-0.022 0.50715-0.0152 0.26796 5e-3 0.54031 0.0623 0.27236 0.0577 0.43621 0.0977 0.16385 0.0399 0.44281 0.17743 0.27894 0.13748 0.36306 0.18404 0.1107 0.0443 0.39625 0.26155 0.28335 0.19064 0.3387 0.21281 0.0553 0.0222 0.36967 0.26376l0.31431 0.24158q1.5097 1.106 1.6591 2.9132l0.27259 3.2954q0.0462 0.55811-0.3195 0.98972-0.36567 0.43161-0.92376 0.47778l-9.1953 0.7606 0.0682 0.82386q0.0264 0.31891 0.21002 0.59806 0.18363 0.27915 0.35628 0.42541 0.19922 0.14407 0.54012 0.38345 0.33869 0.21281 0.45159 0.28374 0.42502 0.28594 0.87681 0.24857l6.9364-0.57376q0.55809-0.0462 0.98971 0.31951 0.43161 0.36567 0.47557 0.89718 0.0462 0.55811-0.3195 0.98972-0.36566 0.43161-0.92375 0.47777l-6.9364 0.57376q-0.42521 0.0352-0.83045-0.0116-0.38085-0.0755-0.65321-0.13328-0.27455-0.0843-0.6664-0.29272-0.36527-0.21061-0.53352-0.30372-0.14168-0.0953-0.54012-0.38345-0.37187-0.29034-0.48477-0.36127-1.4853-1.1348-1.6326-2.9154zm2.394-3.7301 7.8665-0.65069-0.16268-1.9666q-0.0572-0.69098-0.91379-1.3426-0.85663-0.6516-1.5476-0.59444l-3.322 0.27478q-0.37206 0.0308-0.65121 0.21442-0.27914 0.18363-0.64481 0.61525-0.36567 0.43161-0.41662 0.46259-0.42101 0.40943-0.37045 1.0207zm17.014 4.4794q-0.0462-0.55809 0.29513-0.96094 0.33909-0.42941 0.89718-0.47558 0.47838-0.0396 1.0163 0.3173 0.53572 0.3303 0.7815 0.39025 0.0553 0.0222 0.3321 0.13307 0.27455 0.0843 0.38085 0.0755l5.3949-0.44625q0.55811-0.0462 0.95035-0.47997 0.39004-0.46039 0.34607-0.99191l-9e-3 -0.10631q-0.033-0.39863-0.32511-0.69556-0.26777-0.32571-0.59987-0.45878l-7.6254-2.5802q-0.93656-0.32389-1.5672-1.1547-0.63285-0.85743-0.71858-1.8939-0.11211-1.3554 0.79206-2.3934 0.92636-1.0934 2.3349-1.2099l5.6873-0.47043q1.9932-0.16487 3.4073 1.4039 0.29434 0.32351 0.33171 0.77529 0.0462 0.5581-0.3195 0.98972-0.36566 0.43161-0.92375 0.47778-0.47838 0.0396-1.1358-0.46797-0.63303-0.53631-1.138-0.49454l-5.6873 0.47043q-0.29233 0.0242-0.51392 0.25657-0.2216 0.2324-0.19742 0.52473 0.12589 0.5515 0.50894 0.65361l7.6519 2.578q1.0473 0.36826 1.8218 1.321 0.79889 0.92396 0.90001 2.1465l9e-3 0.1063q0.1385 1.6743-0.98508 2.9713-1.0992 1.2683-2.7735 1.4068l-5.0229 0.41547q-1.94 0.16048-3.7043-1.1118-0.54012-0.38345-0.59288-1.0213zm38.633-0.70716-1.7147-20.729 7.8665-0.6507q2.1792-0.18025 3.9057 1.2824t1.9067 3.6419l0.0813 0.98331q0.19565 2.3653-1.5284 4.1669 1.9966 1.4938 2.1923 3.8591l0.0813 0.98331q0.18026 2.1792-1.2824 3.9057-1.4627 1.7265-3.6419 1.9067zm2.4622-2.9062 5.1823-0.42866q1.0896-0.0901 1.8209-0.95336 0.72913-0.8898 0.6412-1.9528l-0.0813-0.98332q-0.0901-1.0896-0.95336-1.821-0.86323-0.73133-1.9528-0.6412l-5.1823 0.42867zm-0.74741-9.0358 5.1823-0.42866q1.0896-0.0901 1.821-0.95336 0.73132-0.86323 0.64339-1.9263l-0.0813-0.98332q-0.0879-1.063-0.95116-1.7944-0.86543-0.75792-1.955-0.66779l-5.1823 0.42866zm17.17 6.3663-0.1231-1.4883q-0.13629-1.6477 0.93633-2.9138 1.0726-1.2661 2.6938-1.4002l5.1292-0.42427q0.63783-0.0528 1.1847 0.0893-0.0154-0.18604-0.0772-0.60905-0.0374-0.45179-0.0794-0.63562-0.0176-0.21262-0.10148-0.58028-0.0574-0.36987-0.15027-0.52273-0.0951-0.17943-0.27216-0.37886-0.15047-0.20161-0.39625-0.26155-0.2192-0.0622-0.53811-0.0358l-4.9432 0.40889q-0.55809 0.0462-0.98751-0.29294-0.40504-0.36786-0.4512-0.92595-0.0462-0.55811 0.29293-0.98752 0.36566-0.43161 0.92376-0.47778l4.9431-0.40888q1.6211-0.13409 2.8584 0.91415 1.2617 1.0195 1.4467 2.6096l1.1654 9.8843q0.0462 0.5581-0.34608 0.99192-0.36787 0.40503-0.92596 0.4512-0.53152 0.044-0.96314-0.3217-0.40503-0.36786-0.449-0.89939l-1.8721 1.3054q-0.25037 0.20802-0.64901 0.24099l-3.9598 0.32755q-1.6211 0.1341-2.8872-0.93853-1.2661-1.0726-1.4024-2.7203zm2.6842-0.22203q0.044 0.53152 0.449 0.89939 0.40284 0.34128 0.93436 0.29731l3.5878-0.29677 2.7052-1.9095-0.0967-1.1694q-0.0396-0.47838-0.49557-0.81526-0.43161-0.36567-0.90999-0.3261l-5.1292 0.42427q-0.50494 0.0418-0.87061 0.47338-0.34128 0.40284-0.29732 0.93436zm16.462-2.1912-0.45285-5.4747q-0.10552-1.2756 0.38882-2.0925 0.49216-0.84345 1.4583-1.7796 0.12409-0.1173 0.19942-0.17705 1.0105-1.0469 2.4987-1.17l1.9932-0.16487q0.42522-0.0352 0.83266 0.0382 0.40523 0.0468 0.65321 0.13326 0.27235 0.0577 0.69298 0.29054 0.42062 0.23279 0.53352 0.30372 0.11289 0.0709 0.54232 0.41003 0.45599 0.33689 0.51134 0.35907l-0.50781-6.1391q-0.044-0.53152 0.29512-0.96093 0.36568-0.43162 0.92377-0.47778 0.55809-0.0462 0.98971 0.3195 0.43162 0.36566 0.47559 0.89719l1.4926 18.045q0.0462 0.5581-0.31951 0.98972-0.36566 0.43161-0.92375 0.47777-0.5581 0.0462-0.98972-0.3195-0.40504-0.36786-0.4512-0.92596l-0.0352-0.42521q-0.56289 0.63523-0.93515 0.98712-0.34788 0.32311-1.0413 0.6748-0.69337 0.35169-1.4906 0.41764l-1.9932 0.16487q-0.4252 0.0352-0.83045-0.0116-0.38085-0.0755-0.65321-0.13328-0.27455-0.0843-0.6664-0.29272-0.36527-0.21062-0.53352-0.30372-0.14168-0.0953-0.54012-0.38345-0.37187-0.29034-0.48477-0.36127-1.4853-1.1348-1.6326-2.9154zm2.6842-0.22203q0.0264 0.31891 0.21002 0.59806 0.18363 0.27914 0.35628 0.42541 0.19922 0.14407 0.54011 0.38345 0.3387 0.2128 0.4516 0.28374 0.42502 0.28593 0.87681 0.24856l1.9932-0.16487q0.47838-0.0396 0.82406-0.38925l2.1229-2.1557q0.44979-0.38506 0.39703-1.0229l-0.2638-3.1891q-0.0462-0.55809-0.5597-0.94374l-2.4482-1.7776q-0.34529-0.29253-0.87681-0.24857l-1.9932 0.16487q-0.37206 0.0308-0.67558 0.24318-0.27915 0.18364-0.59606 0.55771t-0.41662 0.46259q-0.44319 0.46478-0.39483 1.0495zm16.816 2.0875-1.4926-18.045q-0.044-0.53152 0.29513-0.96094 0.36567-0.43161 0.92376-0.47777 0.55809-0.0462 0.98971 0.3195 0.43162 0.36566 0.47559 0.89719l0.54297 6.5643 2.4172-1.8322q0.95714-0.72136 2.0999-0.81589l1.5148-0.1253q1.6211-0.13409 2.8584 0.91415 1.2617 1.0195 1.4467 2.6096l1.1367 9.8599q0.0462 0.55811-0.3195 0.98972-0.33909 0.42942-0.89719 0.47558-0.53152 0.044-0.96094-0.29512-0.43161-0.36567-0.47557-0.89719l-1.1611-9.8311q-0.0949-0.50055-0.49776-0.84184-0.37627-0.34348-0.90778-0.29951l-1.8869 0.15607-4.1011 3.1488 0.68366 8.2652q0.0462 0.5581-0.31951 0.98971-0.36566 0.43162-0.92375 0.47778-0.5581 0.0462-0.98971-0.3195-0.40504-0.36786-0.45121-0.92597zm18.997-4.2204-0.1231-1.4883q-0.1363-1.6477 0.93631-2.9138 1.0726-1.2661 2.6938-1.4002l5.1292-0.42427q0.63782-0.0528 1.1847 0.0893-0.0154-0.18603-0.0772-0.60905-0.0374-0.45179-0.0794-0.63562-0.0176-0.21262-0.10148-0.58028-0.0574-0.36987-0.15027-0.52273-0.0951-0.17943-0.27216-0.37886-0.15047-0.20161-0.39624-0.26155-0.21921-0.0621-0.53812-0.0358l-4.9431 0.40888q-0.5581 0.0462-0.98752-0.29293-0.40503-0.36787-0.4512-0.92596-0.0462-0.5581 0.29292-0.98752 0.36568-0.43161 0.92377-0.47778l4.9431-0.40888q1.6211-0.13409 2.8584 0.91415 1.2617 1.0195 1.4467 2.6096l1.1654 9.8843q0.0462 0.55809-0.34608 0.99191-0.36786 0.40504-0.92596 0.4512-0.53152 0.044-0.96313-0.3217-0.40505-0.36786-0.44901-0.89939l-1.8721 1.3054q-0.25038 0.20802-0.64901 0.241l-3.9598 0.32754q-1.6211 0.1341-2.8872-0.93852-1.2661-1.0726-1.4024-2.7203zm2.6842-0.22203q0.044 0.53153 0.44901 0.89939 0.40284 0.34128 0.93436 0.29732l3.5878-0.29677 2.7051-1.9095-0.0967-1.1694q-0.0396-0.47837-0.49555-0.81526-0.43163-0.36567-0.90999-0.3261l-5.1292 0.42427q-0.50495 0.0418-0.87061 0.47338-0.3413 0.40284-0.29733 0.93436zm15.724-11.121q-0.0462-0.55811 0.29292-0.98752 0.36566-0.43162 0.92377-0.47778 0.53151-0.044 0.96312 0.3217 0.42943 0.33909 0.47339 0.87061l1.161 9.8311q0.0971 0.52712 0.47339 0.87061 0.40064 0.3147 0.93216 0.27074l1.8869-0.15608 4.1298-3.1244-0.68587-8.2917q-0.0462-0.55811 0.29293-0.98752 0.36567-0.43162 0.92376-0.47778 0.55811-0.0462 0.98972 0.3195 0.43161 0.36566 0.47778 0.92377l1.0244 12.384q0.0462 0.55811-0.3195 0.98972-0.36567 0.43161-0.92377 0.47778-0.55809 0.0462-0.98971-0.3195-0.40504-0.36787-0.4512-0.92597l-0.0769-0.93015-2.4416 1.8609q-0.95713 0.72136-2.0999 0.81589l-1.5148 0.1253q-1.5946 0.1319-2.8562-0.88757-1.2639-1.046-1.4467-2.6096zm20.147 9.6789q-0.0462-0.55809 0.29512-0.96094 0.33909-0.42941 0.89719-0.47558 0.47836-0.0396 1.0163 0.3173 0.53573 0.33031 0.7815 0.39025 0.0553 0.0222 0.3321 0.13307 0.27456 0.0843 0.38087 0.0755l5.3949-0.44626q0.55809-0.0462 0.95034-0.47997 0.39004-0.46039 0.34608-0.99191l-9e-3 -0.1063q-0.033-0.39864-0.32511-0.69557-0.26776-0.32571-0.59986-0.45878l-7.6254-2.5802q-0.93655-0.3239-1.5672-1.1547-0.63284-0.85743-0.71857-1.8939-0.11211-1.3554 0.79206-2.3934 0.92636-1.0934 2.3349-1.2099l5.6873-0.47043q1.9932-0.16487 3.4074 1.4039 0.29434 0.32351 0.33171 0.77529 0.0462 0.5581-0.3195 0.98972-0.36567 0.43161-0.92377 0.47778-0.47836 0.0396-1.1358-0.46797-0.63304-0.53631-1.138-0.49454l-5.6873 0.47043q-0.29234 0.0242-0.51394 0.25657-0.22159 0.2324-0.19741 0.52473 0.12589 0.5515 0.50895 0.65361l7.6519 2.578q1.0473 0.36826 1.8218 1.321 0.7989 0.92395 0.90002 2.1464l9e-3 0.1063q0.13849 1.6743-0.98509 2.9713-1.0992 1.2683-2.7735 1.4068l-5.0229 0.41547q-1.94 0.16048-3.7043-1.1118-0.54012-0.38345-0.59288-1.0213z" style="paint-order:markers stroke fill" aria-label="Altes Badhaus"/>
</g>
</svg>
